<svg width="277" height="79" viewBox="0 0 277 79" fill="none" xmlns="http://www.w3.org/2000/svg">
<path d="M29.7981 18.48C28.9181 18.6133 28.2648 18.84 27.8381 19.16C27.4381 19.48 27.1581 19.9867 26.9981 20.68C26.8648 21.3733 26.7981 22.4 26.7981 23.76V46.08L25.8381 46.04L24.7581 46.08L7.39813 24.08V39.44C7.39813 41.0133 7.47813 42.1733 7.63813 42.92C7.79813 43.64 8.14479 44.1733 8.67813 44.52C9.21146 44.84 10.0781 45.0667 11.2781 45.2V46C10.2381 45.92 8.79813 45.88 6.95813 45.88C5.49146 45.88 4.33146 45.92 3.47813 46V45.2C4.35813 45.0667 4.99813 44.84 5.39813 44.52C5.82479 44.2 6.10479 43.6933 6.23813 43C6.39813 42.3067 6.47813 41.28 6.47813 39.92V21.92C6.47813 20.9067 6.39813 20.1733 6.23813 19.72C6.10479 19.2667 5.82479 18.96 5.39813 18.8C4.99813 18.64 4.35813 18.5333 3.47813 18.48V17.68C4.33146 17.76 5.49146 17.8 6.95813 17.8C8.29146 17.8 9.43813 17.76 10.3981 17.68L25.8781 36.76V24.24C25.8781 22.6667 25.7981 21.52 25.6381 20.8C25.4781 20.0533 25.1315 19.52 24.5981 19.2C24.0648 18.8533 23.1981 18.6133 21.9981 18.48V17.68C23.0381 17.76 24.4781 17.8 26.3181 17.8C27.8115 17.8 28.9715 17.76 29.7981 17.68V18.48ZM46.0756 21.12C47.6756 21.12 48.9556 21.3333 49.9156 21.76C50.8756 22.1867 51.9423 22.84 53.1156 23.72C53.4623 23.9867 53.729 24.12 53.9156 24.12C54.4223 24.12 54.7556 23.3067 54.9156 21.68H55.8356C55.729 23.2 55.6756 25.8667 55.6756 29.68H54.7556C54.329 27.6 53.6623 26.0267 52.7556 24.96C51.929 24.0533 51.089 23.36 50.2356 22.88C49.409 22.4 48.3956 22.16 47.1956 22.16C45.4623 22.16 43.9423 22.64 42.6356 23.6C41.3556 24.56 40.369 25.9333 39.6756 27.72C38.9823 29.48 38.6356 31.5333 38.6356 33.88C38.6356 37.96 39.3023 40.96 40.6356 42.88C41.969 44.8 43.9556 45.76 46.5956 45.76C47.5023 45.76 48.2623 45.5733 48.8756 45.2C49.4356 44.8533 49.7156 44.28 49.7156 43.48V39.76C49.7156 38.64 49.609 37.8267 49.3956 37.32C49.209 36.8133 48.8623 36.4667 48.3556 36.28C47.849 36.0933 47.0356 35.9733 45.9156 35.92V35.12C47.649 35.2 49.849 35.24 52.5156 35.24C54.7823 35.24 56.489 35.2 57.6356 35.12V35.92C57.0756 35.9733 56.6756 36.08 56.4356 36.24C56.1956 36.4 56.0356 36.7067 55.9556 37.16C55.8756 37.5867 55.8356 38.32 55.8356 39.36V46H55.0356C54.929 45.0133 54.649 44.52 54.1956 44.52C53.769 44.52 53.1023 44.76 52.1956 45.24C50.1956 46.12 48.1423 46.56 46.0356 46.56C41.689 46.56 38.3023 45.4933 35.8756 43.36C33.449 41.2 32.2356 38.1867 32.2356 34.32C32.2356 31.6533 32.8223 29.3333 33.9956 27.36C35.169 25.36 36.7956 23.8267 38.8756 22.76C40.9823 21.6667 43.3823 21.12 46.0756 21.12ZM73.7625 21.12C76.4558 21.12 78.8158 21.6133 80.8425 22.6C82.8692 23.56 84.4425 24.9867 85.5625 26.88C86.6825 28.7467 87.2425 30.9867 87.2425 33.6C87.2425 36.16 86.6692 38.4267 85.5225 40.4C84.3758 42.3467 82.7758 43.8667 80.7225 44.96C78.6692 46.0267 76.3358 46.56 73.7225 46.56C71.0292 46.56 68.6692 46.08 66.6425 45.12C64.6158 44.1333 63.0425 42.7067 61.9225 40.84C60.8025 38.9467 60.2425 36.6933 60.2425 34.08C60.2425 31.52 60.8158 29.2667 61.9625 27.32C63.1092 25.3467 64.7092 23.8267 66.7625 22.76C68.8158 21.6667 71.1492 21.12 73.7625 21.12ZM73.6025 21.84C72.2158 21.84 70.9892 22.36 69.9225 23.4C68.8825 24.4133 68.0692 25.84 67.4825 27.68C66.9225 29.4933 66.6425 31.5733 66.6425 33.92C66.6425 36.2933 66.9625 38.3867 67.6025 40.2C68.2425 42.0133 69.1092 43.4133 70.2025 44.4C71.3225 45.36 72.5492 45.84 73.8825 45.84C75.2692 45.84 76.4825 45.3333 77.5225 44.32C78.5892 43.28 79.4025 41.8533 79.9625 40.04C80.5492 38.2 80.8425 36.1067 80.8425 33.76C80.8425 31.3867 80.5225 29.2933 79.8825 27.48C79.2425 25.6667 78.3625 24.28 77.2425 23.32C76.1492 22.3333 74.9358 21.84 73.6025 21.84ZM102.043 22.48C101.136 22.5333 100.483 22.64 100.083 22.8C99.6825 22.96 99.4025 23.2667 99.2425 23.72C99.1092 24.1733 99.0425 24.9067 99.0425 25.92V42.24C99.0425 43.0667 99.1092 43.68 99.2425 44.08C99.4025 44.48 99.6558 44.7467 100.003 44.88C100.349 45.0133 100.869 45.08 101.563 45.08H103.123C104.883 45.08 106.363 44.4533 107.563 43.2C108.763 41.92 109.576 39.8667 110.003 37.04H110.923C110.843 37.92 110.803 39.0133 110.803 40.32C110.803 41.9733 110.896 43.8667 111.083 46C109.349 45.92 106.429 45.88 102.323 45.88C96.8292 45.88 92.6958 45.92 89.9225 46V45.2C90.8292 45.1467 91.4825 45.04 91.8825 44.88C92.2825 44.72 92.5492 44.4133 92.6825 43.96C92.8425 43.5067 92.9225 42.7733 92.9225 41.76V25.92C92.9225 24.9067 92.8425 24.1733 92.6825 23.72C92.5492 23.2667 92.2692 22.96 91.8425 22.8C91.4425 22.64 90.8025 22.5333 89.9225 22.48V21.68C91.2825 21.76 93.3892 21.8 96.2425 21.8C98.7492 21.8 100.683 21.76 102.043 21.68V22.48ZM126.77 21.12C129.464 21.12 131.824 21.6133 133.85 22.6C135.877 23.56 137.45 24.9867 138.57 26.88C139.69 28.7467 140.25 30.9867 140.25 33.6C140.25 36.16 139.677 38.4267 138.53 40.4C137.384 42.3467 135.784 43.8667 133.73 44.96C131.677 46.0267 129.344 46.56 126.73 46.56C124.037 46.56 121.677 46.08 119.65 45.12C117.624 44.1333 116.05 42.7067 114.93 40.84C113.81 38.9467 113.25 36.6933 113.25 34.08C113.25 31.52 113.824 29.2667 114.97 27.32C116.117 25.3467 117.717 23.8267 119.77 22.76C121.824 21.6667 124.157 21.12 126.77 21.12ZM126.61 21.84C125.224 21.84 123.997 22.36 122.93 23.4C121.89 24.4133 121.077 25.84 120.49 27.68C119.93 29.4933 119.65 31.5733 119.65 33.92C119.65 36.2933 119.97 38.3867 120.61 40.2C121.25 42.0133 122.117 43.4133 123.21 44.4C124.33 45.36 125.557 45.84 126.89 45.84C128.277 45.84 129.49 45.3333 130.53 44.32C131.597 43.28 132.41 41.8533 132.97 40.04C133.557 38.2 133.85 36.1067 133.85 33.76C133.85 31.3867 133.53 29.2933 132.89 27.48C132.25 25.6667 131.37 24.28 130.25 23.32C129.157 22.3333 127.944 21.84 126.61 21.84ZM159.122 35.6H144.682V32.28H159.122V35.6ZM197.643 18.48C196.736 18.5333 196.083 18.64 195.683 18.8C195.283 18.96 195.003 19.2667 194.843 19.72C194.709 20.1733 194.643 20.9067 194.643 21.92V41.76C194.643 42.7733 194.709 43.5067 194.843 43.96C195.003 44.4133 195.283 44.72 195.683 44.88C196.109 45.04 196.763 45.1467 197.643 45.2V46C196.176 45.92 194.083 45.88 191.363 45.88C188.509 45.88 186.403 45.92 185.043 46V45.2C186.003 45.1467 186.696 45.04 187.123 44.88C187.576 44.72 187.883 44.4133 188.043 43.96C188.203 43.5067 188.283 42.7733 188.283 41.76V20.84L178.643 46.04H178.003L167.203 20.28V39.44C167.203 41.0133 167.283 42.1733 167.443 42.92C167.603 43.64 167.949 44.1733 168.483 44.52C169.016 44.84 169.883 45.0667 171.083 45.2V46C170.043 45.92 168.603 45.88 166.763 45.88C165.296 45.88 164.136 45.92 163.283 46V45.2C164.163 45.0667 164.803 44.84 165.203 44.52C165.629 44.2 165.909 43.6933 166.043 43C166.203 42.3067 166.283 41.28 166.283 39.92V21.92C166.283 20.9067 166.203 20.1733 166.043 19.72C165.909 19.2667 165.629 18.96 165.203 18.8C164.803 18.64 164.163 18.5333 163.283 18.48V17.68C164.136 17.76 165.296 17.8 166.763 17.8C169.216 17.8 171.323 17.76 173.083 17.68L181.163 37.16L188.523 17.8H191.363C194.083 17.8 196.176 17.76 197.643 17.68V18.48ZM221.193 40.8C221.193 42.32 221.286 44.0533 221.473 46C219.74 45.92 216.82 45.88 212.713 45.88C207.22 45.88 203.086 45.92 200.313 46V45.2C201.22 45.1467 201.873 45.04 202.273 44.88C202.673 44.72 202.94 44.4133 203.073 43.96C203.233 43.5067 203.313 42.7733 203.313 41.76V25.92C203.313 24.9067 203.233 24.1733 203.073 23.72C202.94 23.2667 202.66 22.96 202.233 22.8C201.833 22.64 201.193 22.5333 200.313 22.48V21.68C203.086 21.76 207.22 21.8 212.713 21.8C216.446 21.8 219.1 21.76 220.673 21.68C220.486 23.4667 220.393 25.0667 220.393 26.48C220.393 27.52 220.433 28.3467 220.513 28.96H219.593C219.193 26.6667 218.5 25.04 217.513 24.08C216.526 23.0933 215.166 22.6 213.433 22.6H211.953C211.26 22.6 210.74 22.6667 210.393 22.8C210.046 22.9067 209.793 23.1467 209.633 23.52C209.5 23.8667 209.433 24.4267 209.433 25.2V33.36H211.313C212.54 33.36 213.46 32.9333 214.073 32.08C214.713 31.2 215.14 30.1867 215.353 29.04H216.273C216.193 29.9467 216.153 30.9867 216.153 32.16V33.76C216.153 34.96 216.233 36.5333 216.393 38.48H215.473C215.286 37.2267 214.86 36.2 214.193 35.4C213.553 34.5733 212.593 34.16 211.313 34.16H209.433V42.48C209.433 43.2533 209.5 43.8267 209.633 44.2C209.793 44.5467 210.046 44.7867 210.393 44.92C210.74 45.0267 211.26 45.08 211.953 45.08H213.673C215.566 45.08 217.046 44.5333 218.113 43.44C219.206 42.3467 219.966 40.5067 220.393 37.92H221.313C221.233 38.6667 221.193 39.6267 221.193 40.8ZM245.568 40.8C245.568 42.32 245.661 44.0533 245.848 46C244.115 45.92 241.195 45.88 237.088 45.88C231.595 45.88 227.461 45.92 224.688 46V45.2C225.595 45.1467 226.248 45.04 226.648 44.88C227.048 44.72 227.315 44.4133 227.448 43.96C227.608 43.5067 227.688 42.7733 227.688 41.76V25.92C227.688 24.9067 227.608 24.1733 227.448 23.72C227.315 23.2667 227.035 22.96 226.608 22.8C226.208 22.64 225.568 22.5333 224.688 22.48V21.68C227.461 21.76 231.595 21.8 237.088 21.8C240.821 21.8 243.475 21.76 245.048 21.68C244.861 23.4667 244.768 25.0667 244.768 26.48C244.768 27.52 244.808 28.3467 244.888 28.96H243.968C243.568 26.6667 242.875 25.04 241.888 24.08C240.901 23.0933 239.541 22.6 237.808 22.6H236.328C235.635 22.6 235.115 22.6667 234.768 22.8C234.421 22.9067 234.168 23.1467 234.008 23.52C233.875 23.8667 233.808 24.4267 233.808 25.2V33.36H235.688C236.915 33.36 237.835 32.9333 238.448 32.08C239.088 31.2 239.515 30.1867 239.728 29.04H240.648C240.568 29.9467 240.528 30.9867 240.528 32.16V33.76C240.528 34.96 240.608 36.5333 240.768 38.48H239.848C239.661 37.2267 239.235 36.2 238.568 35.4C237.928 34.5733 236.968 34.16 235.688 34.16H233.808V42.48C233.808 43.2533 233.875 43.8267 234.008 44.2C234.168 44.5467 234.421 44.7867 234.768 44.92C235.115 45.0267 235.635 45.08 236.328 45.08H238.048C239.941 45.08 241.421 44.5333 242.488 43.44C243.581 42.3467 244.341 40.5067 244.768 37.92H245.688C245.608 38.6667 245.568 39.6267 245.568 40.8ZM261.183 21.68C265.85 21.68 269.343 22.6933 271.663 24.72C273.983 26.72 275.143 29.6533 275.143 33.52C275.143 36.0267 274.583 38.2267 273.463 40.12C272.343 41.9867 270.703 43.44 268.543 44.48C266.383 45.4933 263.81 46 260.823 46L258.263 45.96C256.556 45.9067 255.303 45.88 254.503 45.88C252.13 45.88 250.316 45.92 249.063 46V45.2C249.97 45.1467 250.623 45.04 251.023 44.88C251.423 44.72 251.69 44.4133 251.823 43.96C251.983 43.5067 252.063 42.7733 252.063 41.76V25.92C252.063 24.9067 251.983 24.1733 251.823 23.72C251.69 23.2667 251.423 22.96 251.023 22.8C250.623 22.64 249.97 22.5333 249.063 22.48V21.68C250.076 21.76 251.503 21.8 253.343 21.8L257.183 21.76C259.156 21.7067 260.49 21.68 261.183 21.68ZM260.663 22.4C259.97 22.4 259.45 22.4933 259.103 22.68C258.756 22.8667 258.516 23.2 258.383 23.68C258.25 24.16 258.183 24.88 258.183 25.84V41.84C258.183 42.8 258.25 43.52 258.383 44C258.516 44.48 258.756 44.8133 259.103 45C259.45 45.1867 259.983 45.28 260.703 45.28C262.756 45.28 264.37 44.8533 265.543 44C266.716 43.12 267.543 41.84 268.023 40.16C268.503 38.48 268.743 36.32 268.743 33.68C268.743 29.7867 268.13 26.9333 266.903 25.12C265.676 23.3067 263.596 22.4 260.663 22.4ZM21.6419 71.32C21.8152 71.76 22.0152 72.08 22.2419 72.28C22.4685 72.48 22.6885 72.5867 22.9019 72.6V73C22.1019 72.96 21.0885 72.94 19.8619 72.94C18.5019 72.94 17.4885 72.96 16.8219 73V72.6C17.3285 72.5733 17.6885 72.5133 17.9019 72.42C18.1152 72.3133 18.2219 72.1333 18.2219 71.88C18.2219 71.64 18.1419 71.32 17.9819 70.92L16.7819 67.64H12.4219L11.9019 69.02C11.5285 69.98 11.3419 70.72 11.3419 71.24C11.3419 71.7333 11.4885 72.08 11.7819 72.28C12.0885 72.4667 12.5352 72.5733 13.1219 72.6V73C12.2152 72.96 11.3885 72.94 10.6419 72.94C10.0285 72.94 9.52188 72.96 9.12187 73V72.6C9.77521 72.48 10.3485 71.78 10.8419 70.5L15.4019 58.8C15.5485 58.8133 15.7819 58.82 16.1019 58.82C16.4219 58.82 16.6485 58.8133 16.7819 58.8L21.6419 71.32ZM16.6419 67.24L14.6619 61.84L12.5819 67.24H16.6419ZM36.3817 72.16C36.0617 72.5333 35.7017 72.8133 35.3017 73C34.9017 73.1867 34.4017 73.28 33.8017 73.28C33.0417 73.28 32.4551 73.1333 32.0417 72.84C31.6284 72.5467 31.3617 72.1533 31.2417 71.66L30.6617 69.3C30.5151 68.5533 30.2884 68.06 29.9817 67.82C29.6884 67.5667 29.2484 67.44 28.6617 67.44H28.0017V70.88C28.0017 71.3867 28.0351 71.7533 28.1017 71.98C28.1817 72.2067 28.3217 72.36 28.5217 72.44C28.7351 72.52 29.0617 72.5733 29.5017 72.6V73C28.7417 72.96 27.6551 72.94 26.2417 72.94C25.0017 72.94 24.0684 72.96 23.4417 73V72.6C23.8951 72.5733 24.2217 72.52 24.4217 72.44C24.6217 72.36 24.7551 72.2067 24.8217 71.98C24.9017 71.7533 24.9417 71.3867 24.9417 70.88V62.96C24.9417 62.4533 24.9017 62.0867 24.8217 61.86C24.7551 61.6333 24.6217 61.48 24.4217 61.4C24.2217 61.32 23.8951 61.2667 23.4417 61.24V60.84C24.0684 60.88 24.9617 60.9 26.1217 60.9L28.4017 60.88C28.6684 60.8667 28.9684 60.86 29.3017 60.86C31.0884 60.86 32.4217 61.1333 33.3017 61.68C34.1951 62.2133 34.6417 62.96 34.6417 63.92C34.6417 64.7467 34.2884 65.4733 33.5817 66.1C32.8751 66.7267 31.6951 67.1267 30.0417 67.3C30.2284 67.3 30.4217 67.32 30.6217 67.36C31.5817 67.4667 32.3351 67.68 32.8817 68C33.4417 68.32 33.8084 68.8267 33.9817 69.52L34.4017 71.3C34.4951 71.6733 34.6084 71.94 34.7417 72.1C34.8751 72.26 35.0417 72.34 35.2417 72.34C35.5217 72.34 35.8084 72.1933 36.1017 71.9L36.3817 72.16ZM29.0417 61.24C28.7484 61.24 28.5284 61.2867 28.3817 61.38C28.2351 61.4733 28.1351 61.64 28.0817 61.88C28.0284 62.12 28.0017 62.48 28.0017 62.96V67.04H28.8617C29.8484 67.04 30.5217 66.7867 30.8817 66.28C31.2551 65.7733 31.4417 65.06 31.4417 64.14C31.4417 63.1667 31.2551 62.44 30.8817 61.96C30.5217 61.48 29.9084 61.24 29.0417 61.24ZM43.2639 60.56C44.0372 60.56 44.6639 60.6733 45.1439 60.9C45.6239 61.1133 46.1172 61.4333 46.6239 61.86C46.7706 61.98 46.8972 62.04 47.0039 62.04C47.2706 62.04 47.4439 61.64 47.5239 60.84H47.9839C47.9306 61.64 47.9039 63.04 47.9039 65.04H47.4439C47.3106 64.32 47.1772 63.8 47.0439 63.48C46.9106 63.1467 46.7106 62.8133 46.4439 62.48C46.0706 62.04 45.6439 61.7 45.1639 61.46C44.6972 61.2067 44.2106 61.08 43.7039 61.08C42.9706 61.08 42.3306 61.32 41.7839 61.8C41.2372 62.2667 40.8106 62.94 40.5039 63.82C40.2106 64.7 40.0639 65.7467 40.0639 66.96C40.0639 68.1867 40.2239 69.24 40.5439 70.12C40.8772 70.9867 41.3306 71.6467 41.9039 72.1C42.4772 72.54 43.1239 72.76 43.8439 72.76C44.3639 72.76 44.8706 72.64 45.3639 72.4C45.8706 72.1467 46.3039 71.8 46.6639 71.36C46.9306 71.0267 47.1239 70.6667 47.2439 70.28C47.3639 69.8933 47.4772 69.3333 47.5839 68.6H48.0439C48.0439 70.6933 48.0706 72.16 48.1239 73H47.6639C47.6239 72.5867 47.5639 72.2867 47.4839 72.1C47.4039 71.9 47.2972 71.8 47.1639 71.8C47.0572 71.8 46.9239 71.86 46.7639 71.98C46.2706 72.3933 45.7572 72.7133 45.2239 72.94C44.6906 73.1667 44.0506 73.28 43.3039 73.28C42.0372 73.28 40.9172 73.0333 39.9439 72.54C38.9706 72.0467 38.2106 71.3333 37.6639 70.4C37.1306 69.4667 36.8639 68.3467 36.8639 67.04C36.8639 65.7733 37.1439 64.6467 37.7039 63.66C38.2639 62.6733 39.0239 61.9133 39.9839 61.38C40.9572 60.8333 42.0506 60.56 43.2639 60.56ZM64.0884 61.24C63.6351 61.2667 63.3084 61.32 63.1084 61.4C62.9084 61.48 62.7684 61.6333 62.6884 61.86C62.6218 62.0867 62.5884 62.4533 62.5884 62.96V70.88C62.5884 71.3867 62.6218 71.7533 62.6884 71.98C62.7684 72.2067 62.9084 72.36 63.1084 72.44C63.3218 72.52 63.6484 72.5733 64.0884 72.6V73C63.4751 72.96 62.5018 72.94 61.1684 72.94C59.8218 72.94 58.7751 72.96 58.0284 73V72.6C58.4818 72.5733 58.8084 72.52 59.0084 72.44C59.2084 72.36 59.3418 72.2067 59.4084 71.98C59.4884 71.7533 59.5284 71.3867 59.5284 70.88V67H54.3884V70.88C54.3884 71.3867 54.4218 71.7533 54.4884 71.98C54.5684 72.2067 54.7084 72.36 54.9084 72.44C55.1218 72.52 55.4484 72.5733 55.8884 72.6V73C55.1551 72.96 54.1084 72.94 52.7484 72.94C51.4418 72.94 50.4684 72.96 49.8284 73V72.6C50.2818 72.5733 50.6084 72.52 50.8084 72.44C51.0084 72.36 51.1418 72.2067 51.2084 71.98C51.2884 71.7533 51.3284 71.3867 51.3284 70.88V62.96C51.3284 62.4533 51.2884 62.0867 51.2084 61.86C51.1418 61.6333 51.0018 61.48 50.7884 61.4C50.5884 61.32 50.2684 61.2667 49.8284 61.24V60.84C50.4684 60.88 51.4418 60.9 52.7484 60.9C54.1084 60.9 55.1551 60.88 55.8884 60.84V61.24C55.4351 61.2667 55.1084 61.32 54.9084 61.4C54.7084 61.48 54.5684 61.6333 54.4884 61.86C54.4218 62.0867 54.3884 62.4533 54.3884 62.96V66.6H59.5284V62.96C59.5284 62.4533 59.4884 62.0867 59.4084 61.86C59.3418 61.6333 59.2018 61.48 58.9884 61.4C58.7884 61.32 58.4684 61.2667 58.0284 61.24V60.84C58.7751 60.88 59.8218 60.9 61.1684 60.9C62.5018 60.9 63.4751 60.88 64.0884 60.84V61.24ZM71.5134 61.24C71.0601 61.2667 70.7334 61.32 70.5334 61.4C70.3334 61.48 70.1934 61.6333 70.1134 61.86C70.0468 62.0867 70.0134 62.4533 70.0134 62.96V70.88C70.0134 71.3867 70.0468 71.7533 70.1134 71.98C70.1934 72.2067 70.3334 72.36 70.5334 72.44C70.7334 72.52 71.0601 72.5733 71.5134 72.6V73C70.8334 72.96 69.8468 72.94 68.5534 72.94C67.1534 72.94 66.1201 72.96 65.4534 73V72.6C65.9068 72.5733 66.2334 72.52 66.4334 72.44C66.6334 72.36 66.7668 72.2067 66.8334 71.98C66.9134 71.7533 66.9534 71.3867 66.9534 70.88V62.96C66.9534 62.4533 66.9134 62.0867 66.8334 61.86C66.7668 61.6333 66.6268 61.48 66.4134 61.4C66.2134 61.32 65.8934 61.2667 65.4534 61.24V60.84C66.1068 60.88 67.1401 60.9 68.5534 60.9C69.8468 60.9 70.8334 60.88 71.5134 60.84V61.24ZM84.6153 60.84C84.522 61.8533 84.4753 62.76 84.4753 63.56C84.4753 64.3067 84.4953 64.8933 84.5353 65.32H84.0753C83.8886 64.3067 83.662 63.5133 83.3953 62.94C83.142 62.3667 82.8086 61.9533 82.3953 61.7C81.9953 61.4333 81.4753 61.3 80.8353 61.3H80.2153V70.68C80.2153 71.24 80.2686 71.6467 80.3753 71.9C80.482 72.1533 80.6686 72.3267 80.9353 72.42C81.202 72.5133 81.6353 72.5733 82.2353 72.6V73C81.5153 72.96 80.3153 72.94 78.6353 72.94C76.942 72.94 75.7753 72.96 75.1353 73V72.6C75.7353 72.5733 76.1686 72.5133 76.4353 72.42C76.702 72.3267 76.8886 72.1533 76.9953 71.9C77.102 71.6467 77.1553 71.24 77.1553 70.68V61.3H76.5353C75.8953 61.3 75.3686 61.4333 74.9553 61.7C74.5553 61.9533 74.222 62.3667 73.9553 62.94C73.702 63.5133 73.482 64.3067 73.2953 65.32H72.8353C72.8753 64.8933 72.8953 64.3067 72.8953 63.56C72.8953 62.76 72.8486 61.8533 72.7553 60.84C73.9153 60.88 75.8753 60.9 78.6353 60.9C81.4486 60.9 83.442 60.88 84.6153 60.84ZM96.3036 70.4C96.3036 71.16 96.3503 72.0267 96.4436 73C95.5769 72.96 94.1169 72.94 92.0636 72.94C89.3169 72.94 87.2503 72.96 85.8636 73V72.6C86.3169 72.5733 86.6436 72.52 86.8436 72.44C87.0436 72.36 87.1769 72.2067 87.2436 71.98C87.3236 71.7533 87.3636 71.3867 87.3636 70.88V62.96C87.3636 62.4533 87.3236 62.0867 87.2436 61.86C87.1769 61.6333 87.0369 61.48 86.8236 61.4C86.6236 61.32 86.3036 61.2667 85.8636 61.24V60.84C87.2503 60.88 89.3169 60.9 92.0636 60.9C93.9303 60.9 95.2569 60.88 96.0436 60.84C95.9503 61.7333 95.9036 62.5333 95.9036 63.24C95.9036 63.76 95.9236 64.1733 95.9636 64.48H95.5036C95.3036 63.3333 94.9569 62.52 94.4636 62.04C93.9703 61.5467 93.2903 61.3 92.4236 61.3H91.6836C91.3369 61.3 91.0769 61.3333 90.9036 61.4C90.7303 61.4533 90.6036 61.5733 90.5236 61.76C90.4569 61.9333 90.4236 62.2133 90.4236 62.6V66.68H91.3636C91.9769 66.68 92.4369 66.4667 92.7436 66.04C93.0636 65.6 93.2769 65.0933 93.3836 64.52H93.8436C93.8036 64.9733 93.7836 65.4933 93.7836 66.08V66.88C93.7836 67.48 93.8236 68.2667 93.9036 69.24H93.4436C93.3503 68.6133 93.1369 68.1 92.8036 67.7C92.4836 67.2867 92.0036 67.08 91.3636 67.08H90.4236V71.24C90.4236 71.6267 90.4569 71.9133 90.5236 72.1C90.6036 72.2733 90.7303 72.3933 90.9036 72.46C91.0769 72.5133 91.3369 72.54 91.6836 72.54H92.5436C93.4903 72.54 94.2303 72.2667 94.7636 71.72C95.3103 71.1733 95.6903 70.2533 95.9036 68.96H96.3636C96.3236 69.3333 96.3036 69.8133 96.3036 70.4ZM104.631 60.56C105.404 60.56 106.031 60.6733 106.511 60.9C106.991 61.1133 107.484 61.4333 107.991 61.86C108.138 61.98 108.264 62.04 108.371 62.04C108.638 62.04 108.811 61.64 108.891 60.84H109.351C109.298 61.64 109.271 63.04 109.271 65.04H108.811C108.678 64.32 108.544 63.8 108.411 63.48C108.278 63.1467 108.078 62.8133 107.811 62.48C107.438 62.04 107.011 61.7 106.531 61.46C106.064 61.2067 105.578 61.08 105.071 61.08C104.338 61.08 103.698 61.32 103.151 61.8C102.604 62.2667 102.178 62.94 101.871 63.82C101.578 64.7 101.431 65.7467 101.431 66.96C101.431 68.1867 101.591 69.24 101.911 70.12C102.244 70.9867 102.698 71.6467 103.271 72.1C103.844 72.54 104.491 72.76 105.211 72.76C105.731 72.76 106.238 72.64 106.731 72.4C107.238 72.1467 107.671 71.8 108.031 71.36C108.298 71.0267 108.491 70.6667 108.611 70.28C108.731 69.8933 108.844 69.3333 108.951 68.6H109.411C109.411 70.6933 109.438 72.16 109.491 73H109.031C108.991 72.5867 108.931 72.2867 108.851 72.1C108.771 71.9 108.664 71.8 108.531 71.8C108.424 71.8 108.291 71.86 108.131 71.98C107.638 72.3933 107.124 72.7133 106.591 72.94C106.058 73.1667 105.418 73.28 104.671 73.28C103.404 73.28 102.284 73.0333 101.311 72.54C100.338 72.0467 99.5778 71.3333 99.0311 70.4C98.4978 69.4667 98.2311 68.3467 98.2311 67.04C98.2311 65.7733 98.5111 64.6467 99.0711 63.66C99.6311 62.6733 100.391 61.9133 101.351 61.38C102.324 60.8333 103.418 60.56 104.631 60.56ZM122.936 60.84C122.842 61.8533 122.796 62.76 122.796 63.56C122.796 64.3067 122.816 64.8933 122.856 65.32H122.396C122.209 64.3067 121.982 63.5133 121.716 62.94C121.462 62.3667 121.129 61.9533 120.716 61.7C120.316 61.4333 119.796 61.3 119.156 61.3H118.536V70.68C118.536 71.24 118.589 71.6467 118.696 71.9C118.802 72.1533 118.989 72.3267 119.256 72.42C119.522 72.5133 119.956 72.5733 120.556 72.6V73C119.836 72.96 118.636 72.94 116.956 72.94C115.262 72.94 114.096 72.96 113.456 73V72.6C114.056 72.5733 114.489 72.5133 114.756 72.42C115.022 72.3267 115.209 72.1533 115.316 71.9C115.422 71.6467 115.476 71.24 115.476 70.68V61.3H114.856C114.216 61.3 113.689 61.4333 113.276 61.7C112.876 61.9533 112.542 62.3667 112.276 62.94C112.022 63.5133 111.802 64.3067 111.616 65.32H111.156C111.196 64.8933 111.216 64.3067 111.216 63.56C111.216 62.76 111.169 61.8533 111.076 60.84C112.236 60.88 114.196 60.9 116.956 60.9C119.769 60.9 121.762 60.88 122.936 60.84ZM144.902 62.52C144.902 63.4667 144.616 64.1933 144.042 64.7C143.469 65.1933 142.736 65.5667 141.842 65.82L141.442 65.94C141.922 66.1667 142.282 66.5133 142.522 66.98C142.762 67.4333 142.882 67.9333 142.882 68.48C142.882 69.44 142.582 70.28 141.982 71C141.396 71.72 140.542 72.28 139.422 72.68C138.316 73.08 137.009 73.28 135.502 73.28C134.156 73.28 132.956 73.12 131.902 72.8C130.849 72.4667 130.022 72 129.422 71.4C128.836 70.7867 128.542 70.06 128.542 69.22C128.542 68.4067 128.776 67.7133 129.242 67.14C129.722 66.5667 130.269 66.1267 130.882 65.82C131.496 65.5133 132.056 65.3067 132.562 65.2C130.896 64.6667 130.062 63.8867 130.062 62.86C130.062 62.1267 130.456 61.56 131.242 61.16C132.042 60.76 132.996 60.56 134.102 60.56C134.822 60.56 135.462 60.6933 136.022 60.96C136.822 61.3867 137.222 61.9267 137.222 62.58C137.222 62.9933 137.069 63.32 136.762 63.56C136.469 63.8 136.102 63.92 135.662 63.92C135.249 63.92 134.902 63.8133 134.622 63.6C134.356 63.3867 134.222 63.0867 134.222 62.7C134.222 62.3533 134.336 62.0467 134.562 61.78C134.802 61.5 135.116 61.32 135.502 61.24C135.422 61.1467 135.282 61.0667 135.082 61C134.882 60.9333 134.662 60.9 134.422 60.9C133.809 60.9 133.276 61.1133 132.822 61.54C132.382 61.9667 132.162 62.54 132.162 63.26C132.162 63.62 132.209 63.9467 132.302 64.24C132.396 64.5333 132.569 64.8133 132.822 65.08C133.169 64.9733 133.542 64.92 133.942 64.92C134.182 64.92 134.362 64.9667 134.482 65.06C134.616 65.1533 134.682 65.28 134.682 65.44C134.682 65.72 134.496 65.86 134.122 65.86C133.922 65.86 133.716 65.8133 133.502 65.72C133.302 65.6267 133.082 65.5067 132.842 65.36C132.496 65.6267 132.222 65.9533 132.022 66.34C131.822 66.7133 131.722 67.1867 131.722 67.76C131.722 69.04 132.169 70 133.062 70.64C133.969 71.28 135.229 71.6 136.842 71.6C138.416 71.6 139.722 71.3133 140.762 70.74C141.816 70.1667 142.342 69.28 142.342 68.08C142.342 67.0933 141.929 66.4133 141.102 66.04L138.762 66.74C137.629 67.0067 136.789 67.28 136.242 67.56C135.696 67.84 135.422 68.22 135.422 68.7C135.422 69.14 135.622 69.5067 136.022 69.8C136.436 70.08 136.902 70.22 137.422 70.22C137.582 70.22 137.742 70.2 137.902 70.16C138.062 70.12 138.169 70.0733 138.222 70.02C137.902 69.9133 137.656 69.7467 137.482 69.52C137.309 69.2933 137.222 69.0267 137.222 68.72C137.222 68.3067 137.369 67.98 137.662 67.74C137.969 67.5 138.356 67.38 138.822 67.38C139.302 67.38 139.676 67.5067 139.942 67.76C140.222 68 140.362 68.3267 140.362 68.74C140.362 69.3267 140.096 69.78 139.562 70.1C139.029 70.4067 138.382 70.56 137.622 70.56C136.729 70.56 136.029 70.36 135.522 69.96C135.029 69.5467 134.782 68.94 134.782 68.14C134.782 67.18 135.136 66.4333 135.842 65.9C136.549 65.3533 137.476 64.9267 138.622 64.62C139.756 64.3267 140.709 64.0333 141.482 63.74C142.162 63.5267 142.662 63.36 142.982 63.24C143.316 63.1067 143.609 62.92 143.862 62.68C144.129 62.44 144.262 62.1467 144.262 61.8C144.262 61.32 144.056 60.9333 143.642 60.64C143.229 60.3467 142.749 60.2 142.202 60.2C141.976 60.2 141.796 60.2333 141.662 60.3C141.956 60.42 142.189 60.6 142.362 60.84C142.549 61.0667 142.642 61.3133 142.642 61.58C142.642 61.9667 142.489 62.2733 142.182 62.5C141.889 62.7267 141.516 62.84 141.062 62.84C140.582 62.84 140.196 62.7267 139.902 62.5C139.622 62.26 139.482 61.9333 139.482 61.52C139.482 61 139.709 60.5933 140.162 60.3C140.616 59.9933 141.222 59.84 141.982 59.84C142.876 59.84 143.582 60.0733 144.102 60.54C144.636 60.9933 144.902 61.6533 144.902 62.52ZM161.408 71.32C161.581 71.76 161.781 72.08 162.008 72.28C162.234 72.48 162.454 72.5867 162.668 72.6V73C161.868 72.96 160.854 72.94 159.628 72.94C158.268 72.94 157.254 72.96 156.588 73V72.6C157.094 72.5733 157.454 72.5133 157.668 72.42C157.881 72.3133 157.988 72.1333 157.988 71.88C157.988 71.64 157.908 71.32 157.748 70.92L156.548 67.64H152.188L151.668 69.02C151.294 69.98 151.108 70.72 151.108 71.24C151.108 71.7333 151.254 72.08 151.548 72.28C151.854 72.4667 152.301 72.5733 152.888 72.6V73C151.981 72.96 151.154 72.94 150.408 72.94C149.794 72.94 149.288 72.96 148.887 73V72.6C149.541 72.48 150.114 71.78 150.608 70.5L155.168 58.8C155.314 58.8133 155.548 58.82 155.868 58.82C156.188 58.82 156.414 58.8133 156.548 58.8L161.408 71.32ZM156.408 67.24L154.428 61.84L152.348 67.24H156.408ZM168.307 60.56C168.921 60.56 169.441 60.6267 169.867 60.76C170.307 60.8933 170.721 61.0733 171.107 61.3C171.254 61.38 171.381 61.4467 171.487 61.5C171.607 61.5533 171.707 61.58 171.787 61.58C171.907 61.58 172.001 61.5133 172.067 61.38C172.134 61.2333 172.187 61.0067 172.227 60.7H172.687C172.621 61.5 172.587 62.8867 172.587 64.86H172.127C171.981 63.66 171.594 62.72 170.967 62.04C170.341 61.3467 169.521 61 168.507 61C167.841 61 167.301 61.1467 166.887 61.44C166.487 61.7333 166.287 62.1133 166.287 62.58C166.287 62.94 166.394 63.2733 166.607 63.58C166.834 63.8733 167.127 64.1467 167.487 64.4C167.847 64.6533 168.374 64.9867 169.067 65.4L169.507 65.66C170.307 66.1133 170.961 66.5267 171.467 66.9C171.974 67.26 172.394 67.6933 172.727 68.2C173.061 68.6933 173.227 69.2533 173.227 69.88C173.227 70.9733 172.774 71.8133 171.867 72.4C170.961 72.9867 169.767 73.28 168.287 73.28C167.647 73.28 167.094 73.2067 166.627 73.06C166.161 72.9267 165.687 72.74 165.207 72.5C164.874 72.34 164.641 72.26 164.507 72.26C164.387 72.26 164.294 72.3333 164.227 72.48C164.161 72.6133 164.107 72.8333 164.067 73.14H163.607C163.661 72.3933 163.687 70.7667 163.687 68.26H164.147C164.241 69.6733 164.621 70.7867 165.287 71.6C165.967 72.4133 166.921 72.82 168.147 72.82C168.747 72.82 169.267 72.6667 169.707 72.36C170.147 72.0533 170.367 71.6 170.367 71C170.367 70.4667 170.161 70.0067 169.747 69.62C169.334 69.2333 168.627 68.7467 167.627 68.16C166.361 67.44 165.387 66.7533 164.707 66.1C164.041 65.4467 163.707 64.68 163.707 63.8C163.707 62.76 164.134 61.96 164.987 61.4C165.854 60.84 166.961 60.56 168.307 60.56ZM179.87 60.56C180.483 60.56 181.003 60.6267 181.43 60.76C181.87 60.8933 182.283 61.0733 182.67 61.3C182.817 61.38 182.943 61.4467 183.05 61.5C183.17 61.5533 183.27 61.58 183.35 61.58C183.47 61.58 183.563 61.5133 183.63 61.38C183.697 61.2333 183.75 61.0067 183.79 60.7H184.25C184.183 61.5 184.15 62.8867 184.15 64.86H183.69C183.543 63.66 183.157 62.72 182.53 62.04C181.903 61.3467 181.083 61 180.07 61C179.403 61 178.863 61.1467 178.45 61.44C178.05 61.7333 177.85 62.1133 177.85 62.58C177.85 62.94 177.957 63.2733 178.17 63.58C178.397 63.8733 178.69 64.1467 179.05 64.4C179.41 64.6533 179.937 64.9867 180.63 65.4L181.07 65.66C181.87 66.1133 182.523 66.5267 183.03 66.9C183.537 67.26 183.957 67.6933 184.29 68.2C184.623 68.6933 184.79 69.2533 184.79 69.88C184.79 70.9733 184.337 71.8133 183.43 72.4C182.523 72.9867 181.33 73.28 179.85 73.28C179.21 73.28 178.657 73.2067 178.19 73.06C177.723 72.9267 177.25 72.74 176.77 72.5C176.437 72.34 176.203 72.26 176.07 72.26C175.95 72.26 175.857 72.3333 175.79 72.48C175.723 72.6133 175.67 72.8333 175.63 73.14H175.17C175.223 72.3933 175.25 70.7667 175.25 68.26H175.71C175.803 69.6733 176.183 70.7867 176.85 71.6C177.53 72.4133 178.483 72.82 179.71 72.82C180.31 72.82 180.83 72.6667 181.27 72.36C181.71 72.0533 181.93 71.6 181.93 71C181.93 70.4667 181.723 70.0067 181.31 69.62C180.897 69.2333 180.19 68.7467 179.19 68.16C177.923 67.44 176.95 66.7533 176.27 66.1C175.603 65.4467 175.27 64.68 175.27 63.8C175.27 62.76 175.697 61.96 176.55 61.4C177.417 60.84 178.523 60.56 179.87 60.56ZM193.252 60.56C194.599 60.56 195.779 60.8067 196.792 61.3C197.806 61.78 198.592 62.4933 199.152 63.44C199.712 64.3733 199.992 65.4933 199.992 66.8C199.992 68.08 199.706 69.2133 199.132 70.2C198.559 71.1733 197.759 71.9333 196.732 72.48C195.706 73.0133 194.539 73.28 193.232 73.28C191.886 73.28 190.706 73.04 189.692 72.56C188.679 72.0667 187.892 71.3533 187.332 70.42C186.772 69.4733 186.492 68.3467 186.492 67.04C186.492 65.76 186.779 64.6333 187.352 63.66C187.926 62.6733 188.726 61.9133 189.752 61.38C190.779 60.8333 191.946 60.56 193.252 60.56ZM193.172 60.92C192.479 60.92 191.866 61.18 191.332 61.7C190.812 62.2067 190.406 62.92 190.112 63.84C189.832 64.7467 189.692 65.7867 189.692 66.96C189.692 68.1467 189.852 69.1933 190.172 70.1C190.492 71.0067 190.926 71.7067 191.472 72.2C192.032 72.68 192.646 72.92 193.312 72.92C194.006 72.92 194.612 72.6667 195.132 72.16C195.666 71.64 196.072 70.9267 196.352 70.02C196.646 69.1 196.792 68.0533 196.792 66.88C196.792 65.6933 196.632 64.6467 196.312 63.74C195.992 62.8333 195.552 62.14 194.992 61.66C194.446 61.1667 193.839 60.92 193.172 60.92ZM208.088 60.56C208.861 60.56 209.488 60.6733 209.968 60.9C210.448 61.1133 210.941 61.4333 211.448 61.86C211.595 61.98 211.721 62.04 211.828 62.04C212.095 62.04 212.268 61.64 212.348 60.84H212.808C212.755 61.64 212.728 63.04 212.728 65.04H212.268C212.135 64.32 212.001 63.8 211.868 63.48C211.735 63.1467 211.535 62.8133 211.268 62.48C210.895 62.04 210.468 61.7 209.988 61.46C209.521 61.2067 209.035 61.08 208.528 61.08C207.795 61.08 207.155 61.32 206.608 61.8C206.061 62.2667 205.635 62.94 205.328 63.82C205.035 64.7 204.888 65.7467 204.888 66.96C204.888 68.1867 205.048 69.24 205.368 70.12C205.701 70.9867 206.155 71.6467 206.728 72.1C207.301 72.54 207.948 72.76 208.668 72.76C209.188 72.76 209.695 72.64 210.188 72.4C210.695 72.1467 211.128 71.8 211.488 71.36C211.755 71.0267 211.948 70.6667 212.068 70.28C212.188 69.8933 212.301 69.3333 212.408 68.6H212.868C212.868 70.6933 212.895 72.16 212.948 73H212.488C212.448 72.5867 212.388 72.2867 212.308 72.1C212.228 71.9 212.121 71.8 211.988 71.8C211.881 71.8 211.748 71.86 211.588 71.98C211.095 72.3933 210.581 72.7133 210.048 72.94C209.515 73.1667 208.875 73.28 208.128 73.28C206.861 73.28 205.741 73.0333 204.768 72.54C203.795 72.0467 203.035 71.3333 202.488 70.4C201.955 69.4667 201.688 68.3467 201.688 67.04C201.688 65.7733 201.968 64.6467 202.528 63.66C203.088 62.6733 203.848 61.9133 204.808 61.38C205.781 60.8333 206.875 60.56 208.088 60.56ZM220.713 61.24C220.259 61.2667 219.933 61.32 219.733 61.4C219.533 61.48 219.393 61.6333 219.313 61.86C219.246 62.0867 219.213 62.4533 219.213 62.96V70.88C219.213 71.3867 219.246 71.7533 219.313 71.98C219.393 72.2067 219.533 72.36 219.733 72.44C219.933 72.52 220.259 72.5733 220.713 72.6V73C220.033 72.96 219.046 72.94 217.753 72.94C216.353 72.94 215.319 72.96 214.653 73V72.6C215.106 72.5733 215.433 72.52 215.633 72.44C215.833 72.36 215.966 72.2067 216.033 71.98C216.113 71.7533 216.153 71.3867 216.153 70.88V62.96C216.153 62.4533 216.113 62.0867 216.033 61.86C215.966 61.6333 215.826 61.48 215.613 61.4C215.413 61.32 215.093 61.2667 214.653 61.24V60.84C215.306 60.88 216.339 60.9 217.753 60.9C219.046 60.9 220.033 60.88 220.713 60.84V61.24ZM232.835 71.32C233.221 72.1467 233.641 72.5733 234.095 72.6V73C233.455 72.96 232.581 72.94 231.475 72.94C230.048 72.94 228.995 72.96 228.315 73V72.6C228.755 72.5733 229.081 72.5067 229.295 72.4C229.508 72.28 229.615 72.0867 229.615 71.82C229.615 71.58 229.528 71.28 229.355 70.92L228.355 68.64H224.155L223.915 69.18C223.541 70.06 223.355 70.7467 223.355 71.24C223.355 71.6933 223.501 72.0267 223.795 72.24C224.088 72.4533 224.521 72.5733 225.095 72.6V73C224.335 72.96 223.568 72.94 222.795 72.94C222.075 72.94 221.535 72.96 221.175 73V72.6C221.495 72.5333 221.788 72.3333 222.055 72C222.335 71.6533 222.628 71.14 222.935 70.46L227.155 60.8C227.261 60.8133 227.415 60.82 227.615 60.82C227.828 60.82 227.981 60.8133 228.075 60.8L232.835 71.32ZM228.175 68.24L226.255 63.86L224.335 68.24H228.175ZM245.26 60.84C245.167 61.8533 245.12 62.76 245.12 63.56C245.12 64.3067 245.14 64.8933 245.18 65.32H244.72C244.533 64.3067 244.307 63.5133 244.04 62.94C243.787 62.3667 243.453 61.9533 243.04 61.7C242.64 61.4333 242.12 61.3 241.48 61.3H240.86V70.68C240.86 71.24 240.913 71.6467 241.02 71.9C241.127 72.1533 241.313 72.3267 241.58 72.42C241.847 72.5133 242.28 72.5733 242.88 72.6V73C242.16 72.96 240.96 72.94 239.28 72.94C237.587 72.94 236.42 72.96 235.78 73V72.6C236.38 72.5733 236.813 72.5133 237.08 72.42C237.347 72.3267 237.533 72.1533 237.64 71.9C237.747 71.6467 237.8 71.24 237.8 70.68V61.3H237.18C236.54 61.3 236.013 61.4333 235.6 61.7C235.2 61.9533 234.867 62.3667 234.6 62.94C234.347 63.5133 234.127 64.3067 233.94 65.32H233.48C233.52 64.8933 233.54 64.3067 233.54 63.56C233.54 62.76 233.493 61.8533 233.4 60.84C234.56 60.88 236.52 60.9 239.28 60.9C242.093 60.9 244.087 60.88 245.26 60.84ZM256.948 70.4C256.948 71.16 256.995 72.0267 257.088 73C256.221 72.96 254.761 72.94 252.708 72.94C249.961 72.94 247.895 72.96 246.508 73V72.6C246.961 72.5733 247.288 72.52 247.488 72.44C247.688 72.36 247.821 72.2067 247.888 71.98C247.968 71.7533 248.008 71.3867 248.008 70.88V62.96C248.008 62.4533 247.968 62.0867 247.888 61.86C247.821 61.6333 247.681 61.48 247.468 61.4C247.268 61.32 246.948 61.2667 246.508 61.24V60.84C247.895 60.88 249.961 60.9 252.708 60.9C254.575 60.9 255.901 60.88 256.688 60.84C256.595 61.7333 256.548 62.5333 256.548 63.24C256.548 63.76 256.568 64.1733 256.608 64.48H256.148C255.948 63.3333 255.601 62.52 255.108 62.04C254.615 61.5467 253.935 61.3 253.068 61.3H252.328C251.981 61.3 251.721 61.3333 251.548 61.4C251.375 61.4533 251.248 61.5733 251.168 61.76C251.101 61.9333 251.068 62.2133 251.068 62.6V66.68H252.008C252.621 66.68 253.081 66.4667 253.388 66.04C253.708 65.6 253.921 65.0933 254.028 64.52H254.488C254.448 64.9733 254.428 65.4933 254.428 66.08V66.88C254.428 67.48 254.468 68.2667 254.548 69.24H254.088C253.995 68.6133 253.781 68.1 253.448 67.7C253.128 67.2867 252.648 67.08 252.008 67.08H251.068V71.24C251.068 71.6267 251.101 71.9133 251.168 72.1C251.248 72.2733 251.375 72.3933 251.548 72.46C251.721 72.5133 251.981 72.54 252.328 72.54H253.188C254.135 72.54 254.875 72.2667 255.408 71.72C255.955 71.1733 256.335 70.2533 256.548 68.96H257.008C256.968 69.3333 256.948 69.8133 256.948 70.4ZM263.796 60.56C264.409 60.56 264.929 60.6267 265.356 60.76C265.796 60.8933 266.209 61.0733 266.596 61.3C266.742 61.38 266.869 61.4467 266.976 61.5C267.096 61.5533 267.196 61.58 267.276 61.58C267.396 61.58 267.489 61.5133 267.556 61.38C267.622 61.2333 267.676 61.0067 267.716 60.7H268.176C268.109 61.5 268.076 62.8867 268.076 64.86H267.616C267.469 63.66 267.082 62.72 266.456 62.04C265.829 61.3467 265.009 61 263.996 61C263.329 61 262.789 61.1467 262.376 61.44C261.976 61.7333 261.776 62.1133 261.776 62.58C261.776 62.94 261.882 63.2733 262.096 63.58C262.322 63.8733 262.616 64.1467 262.976 64.4C263.336 64.6533 263.862 64.9867 264.556 65.4L264.996 65.66C265.796 66.1133 266.449 66.5267 266.956 66.9C267.462 67.26 267.882 67.6933 268.216 68.2C268.549 68.6933 268.716 69.2533 268.716 69.88C268.716 70.9733 268.262 71.8133 267.356 72.4C266.449 72.9867 265.256 73.28 263.776 73.28C263.136 73.28 262.582 73.2067 262.116 73.06C261.649 72.9267 261.176 72.74 260.696 72.5C260.362 72.34 260.129 72.26 259.996 72.26C259.876 72.26 259.782 72.3333 259.716 72.48C259.649 72.6133 259.596 72.8333 259.556 73.14H259.096C259.149 72.3933 259.176 70.7667 259.176 68.26H259.636C259.729 69.6733 260.109 70.7867 260.776 71.6C261.456 72.4133 262.409 72.82 263.636 72.82C264.236 72.82 264.756 72.6667 265.196 72.36C265.636 72.0533 265.856 71.6 265.856 71C265.856 70.4667 265.649 70.0067 265.236 69.62C264.822 69.2333 264.116 68.7467 263.116 68.16C261.849 67.44 260.876 66.7533 260.196 66.1C259.529 65.4467 259.196 64.68 259.196 63.8C259.196 62.76 259.622 61.96 260.476 61.4C261.342 60.84 262.449 60.56 263.796 60.56Z" fill="white"/>
</svg>
