<svg width="276" height="76" viewBox="0 0 276 76" fill="none" xmlns="http://www.w3.org/2000/svg">
<path d="M28.2981 15.48C27.4181 15.6133 26.7648 15.84 26.3381 16.16C25.9381 16.48 25.6581 16.9867 25.4981 17.68C25.3648 18.3733 25.2981 19.4 25.2981 20.76V43.08L24.3381 43.04L23.2581 43.08L5.89813 21.08V36.44C5.89813 38.0133 5.97813 39.1733 6.13813 39.92C6.29813 40.64 6.64479 41.1733 7.17813 41.52C7.71146 41.84 8.57813 42.0667 9.77813 42.2V43C8.73813 42.92 7.29813 42.88 5.45813 42.88C3.99146 42.88 2.83146 42.92 1.97813 43V42.2C2.85813 42.0667 3.49813 41.84 3.89813 41.52C4.32479 41.2 4.60479 40.6933 4.73813 40C4.89813 39.3067 4.97813 38.28 4.97813 36.92V18.92C4.97813 17.9067 4.89813 17.1733 4.73813 16.72C4.60479 16.2667 4.32479 15.96 3.89813 15.8C3.49813 15.64 2.85813 15.5333 1.97813 15.48V14.68C2.83146 14.76 3.99146 14.8 5.45813 14.8C6.79146 14.8 7.93813 14.76 8.89813 14.68L24.3781 33.76V21.24C24.3781 19.6667 24.2981 18.52 24.1381 17.8C23.9781 17.0533 23.6315 16.52 23.0981 16.2C22.5648 15.8533 21.6981 15.6133 20.4981 15.48V14.68C21.5381 14.76 22.9781 14.8 24.8181 14.8C26.3115 14.8 27.4715 14.76 28.2981 14.68V15.48ZM44.5756 18.12C46.1756 18.12 47.4556 18.3333 48.4156 18.76C49.3756 19.1867 50.4423 19.84 51.6156 20.72C51.9623 20.9867 52.229 21.12 52.4156 21.12C52.9223 21.12 53.2556 20.3067 53.4156 18.68H54.3356C54.229 20.2 54.1756 22.8667 54.1756 26.68H53.2556C52.829 24.6 52.1623 23.0267 51.2556 21.96C50.429 21.0533 49.589 20.36 48.7356 19.88C47.909 19.4 46.8956 19.16 45.6956 19.16C43.9623 19.16 42.4423 19.64 41.1356 20.6C39.8556 21.56 38.869 22.9333 38.1756 24.72C37.4823 26.48 37.1356 28.5333 37.1356 30.88C37.1356 34.96 37.8023 37.96 39.1356 39.88C40.469 41.8 42.4556 42.76 45.0956 42.76C46.0023 42.76 46.7623 42.5733 47.3756 42.2C47.9356 41.8533 48.2156 41.28 48.2156 40.48V36.76C48.2156 35.64 48.109 34.8267 47.8956 34.32C47.709 33.8133 47.3623 33.4667 46.8556 33.28C46.349 33.0933 45.5356 32.9733 44.4156 32.92V32.12C46.149 32.2 48.349 32.24 51.0156 32.24C53.2823 32.24 54.989 32.2 56.1356 32.12V32.92C55.5756 32.9733 55.1756 33.08 54.9356 33.24C54.6956 33.4 54.5356 33.7067 54.4556 34.16C54.3756 34.5867 54.3356 35.32 54.3356 36.36V43H53.5356C53.429 42.0133 53.149 41.52 52.6956 41.52C52.269 41.52 51.6023 41.76 50.6956 42.24C48.6956 43.12 46.6423 43.56 44.5356 43.56C40.189 43.56 36.8023 42.4933 34.3756 40.36C31.949 38.2 30.7356 35.1867 30.7356 31.32C30.7356 28.6533 31.3223 26.3333 32.4956 24.36C33.669 22.36 35.2956 20.8267 37.3756 19.76C39.4823 18.6667 41.8823 18.12 44.5756 18.12ZM72.2625 18.12C74.9558 18.12 77.3158 18.6133 79.3425 19.6C81.3692 20.56 82.9425 21.9867 84.0625 23.88C85.1825 25.7467 85.7425 27.9867 85.7425 30.6C85.7425 33.16 85.1692 35.4267 84.0225 37.4C82.8758 39.3467 81.2758 40.8667 79.2225 41.96C77.1692 43.0267 74.8358 43.56 72.2225 43.56C69.5292 43.56 67.1692 43.08 65.1425 42.12C63.1158 41.1333 61.5425 39.7067 60.4225 37.84C59.3025 35.9467 58.7425 33.6933 58.7425 31.08C58.7425 28.52 59.3158 26.2667 60.4625 24.32C61.6092 22.3467 63.2092 20.8267 65.2625 19.76C67.3158 18.6667 69.6492 18.12 72.2625 18.12ZM72.1025 18.84C70.7158 18.84 69.4892 19.36 68.4225 20.4C67.3825 21.4133 66.5692 22.84 65.9825 24.68C65.4225 26.4933 65.1425 28.5733 65.1425 30.92C65.1425 33.2933 65.4625 35.3867 66.1025 37.2C66.7425 39.0133 67.6092 40.4133 68.7025 41.4C69.8225 42.36 71.0492 42.84 72.3825 42.84C73.7692 42.84 74.9825 42.3333 76.0225 41.32C77.0892 40.28 77.9025 38.8533 78.4625 37.04C79.0492 35.2 79.3425 33.1067 79.3425 30.76C79.3425 28.3867 79.0225 26.2933 78.3825 24.48C77.7425 22.6667 76.8625 21.28 75.7425 20.32C74.6492 19.3333 73.4358 18.84 72.1025 18.84ZM100.543 19.48C99.6358 19.5333 98.9825 19.64 98.5825 19.8C98.1825 19.96 97.9025 20.2667 97.7425 20.72C97.6092 21.1733 97.5425 21.9067 97.5425 22.92V39.24C97.5425 40.0667 97.6092 40.68 97.7425 41.08C97.9025 41.48 98.1558 41.7467 98.5025 41.88C98.8492 42.0133 99.3692 42.08 100.063 42.08H101.623C103.383 42.08 104.863 41.4533 106.063 40.2C107.263 38.92 108.076 36.8667 108.503 34.04H109.423C109.343 34.92 109.303 36.0133 109.303 37.32C109.303 38.9733 109.396 40.8667 109.583 43C107.849 42.92 104.929 42.88 100.823 42.88C95.3292 42.88 91.1958 42.92 88.4225 43V42.2C89.3292 42.1467 89.9825 42.04 90.3825 41.88C90.7825 41.72 91.0492 41.4133 91.1825 40.96C91.3425 40.5067 91.4225 39.7733 91.4225 38.76V22.92C91.4225 21.9067 91.3425 21.1733 91.1825 20.72C91.0492 20.2667 90.7692 19.96 90.3425 19.8C89.9425 19.64 89.3025 19.5333 88.4225 19.48V18.68C89.7825 18.76 91.8892 18.8 94.7425 18.8C97.2492 18.8 99.1825 18.76 100.543 18.68V19.48ZM125.27 18.12C127.964 18.12 130.324 18.6133 132.35 19.6C134.377 20.56 135.95 21.9867 137.07 23.88C138.19 25.7467 138.75 27.9867 138.75 30.6C138.75 33.16 138.177 35.4267 137.03 37.4C135.884 39.3467 134.284 40.8667 132.23 41.96C130.177 43.0267 127.844 43.56 125.23 43.56C122.537 43.56 120.177 43.08 118.15 42.12C116.124 41.1333 114.55 39.7067 113.43 37.84C112.31 35.9467 111.75 33.6933 111.75 31.08C111.75 28.52 112.324 26.2667 113.47 24.32C114.617 22.3467 116.217 20.8267 118.27 19.76C120.324 18.6667 122.657 18.12 125.27 18.12ZM125.11 18.84C123.724 18.84 122.497 19.36 121.43 20.4C120.39 21.4133 119.577 22.84 118.99 24.68C118.43 26.4933 118.15 28.5733 118.15 30.92C118.15 33.2933 118.47 35.3867 119.11 37.2C119.75 39.0133 120.617 40.4133 121.71 41.4C122.83 42.36 124.057 42.84 125.39 42.84C126.777 42.84 127.99 42.3333 129.03 41.32C130.097 40.28 130.91 38.8533 131.47 37.04C132.057 35.2 132.35 33.1067 132.35 30.76C132.35 28.3867 132.03 26.2933 131.39 24.48C130.75 22.6667 129.87 21.28 128.75 20.32C127.657 19.3333 126.444 18.84 125.11 18.84ZM157.622 32.6H143.182V29.28H157.622V32.6ZM196.143 15.48C195.236 15.5333 194.583 15.64 194.183 15.8C193.783 15.96 193.503 16.2667 193.343 16.72C193.209 17.1733 193.143 17.9067 193.143 18.92V38.76C193.143 39.7733 193.209 40.5067 193.343 40.96C193.503 41.4133 193.783 41.72 194.183 41.88C194.609 42.04 195.263 42.1467 196.143 42.2V43C194.676 42.92 192.583 42.88 189.863 42.88C187.009 42.88 184.903 42.92 183.543 43V42.2C184.503 42.1467 185.196 42.04 185.623 41.88C186.076 41.72 186.383 41.4133 186.543 40.96C186.703 40.5067 186.783 39.7733 186.783 38.76V17.84L177.143 43.04H176.503L165.703 17.28V36.44C165.703 38.0133 165.783 39.1733 165.943 39.92C166.103 40.64 166.449 41.1733 166.983 41.52C167.516 41.84 168.383 42.0667 169.583 42.2V43C168.543 42.92 167.103 42.88 165.263 42.88C163.796 42.88 162.636 42.92 161.783 43V42.2C162.663 42.0667 163.303 41.84 163.703 41.52C164.129 41.2 164.409 40.6933 164.543 40C164.703 39.3067 164.783 38.28 164.783 36.92V18.92C164.783 17.9067 164.703 17.1733 164.543 16.72C164.409 16.2667 164.129 15.96 163.703 15.8C163.303 15.64 162.663 15.5333 161.783 15.48V14.68C162.636 14.76 163.796 14.8 165.263 14.8C167.716 14.8 169.823 14.76 171.583 14.68L179.663 34.16L187.023 14.8H189.863C192.583 14.8 194.676 14.76 196.143 14.68V15.48ZM219.693 37.8C219.693 39.32 219.786 41.0533 219.973 43C218.24 42.92 215.32 42.88 211.213 42.88C205.72 42.88 201.586 42.92 198.813 43V42.2C199.72 42.1467 200.373 42.04 200.773 41.88C201.173 41.72 201.44 41.4133 201.573 40.96C201.733 40.5067 201.813 39.7733 201.813 38.76V22.92C201.813 21.9067 201.733 21.1733 201.573 20.72C201.44 20.2667 201.16 19.96 200.733 19.8C200.333 19.64 199.693 19.5333 198.813 19.48V18.68C201.586 18.76 205.72 18.8 211.213 18.8C214.946 18.8 217.6 18.76 219.173 18.68C218.986 20.4667 218.893 22.0667 218.893 23.48C218.893 24.52 218.933 25.3467 219.013 25.96H218.093C217.693 23.6667 217 22.04 216.013 21.08C215.026 20.0933 213.666 19.6 211.933 19.6H210.453C209.76 19.6 209.24 19.6667 208.893 19.8C208.546 19.9067 208.293 20.1467 208.133 20.52C208 20.8667 207.933 21.4267 207.933 22.2V30.36H209.813C211.04 30.36 211.96 29.9333 212.573 29.08C213.213 28.2 213.64 27.1867 213.853 26.04H214.773C214.693 26.9467 214.653 27.9867 214.653 29.16V30.76C214.653 31.96 214.733 33.5333 214.893 35.48H213.973C213.786 34.2267 213.36 33.2 212.693 32.4C212.053 31.5733 211.093 31.16 209.813 31.16H207.933V39.48C207.933 40.2533 208 40.8267 208.133 41.2C208.293 41.5467 208.546 41.7867 208.893 41.92C209.24 42.0267 209.76 42.08 210.453 42.08H212.173C214.066 42.08 215.546 41.5333 216.613 40.44C217.706 39.3467 218.466 37.5067 218.893 34.92H219.813C219.733 35.6667 219.693 36.6267 219.693 37.8ZM244.068 37.8C244.068 39.32 244.161 41.0533 244.348 43C242.615 42.92 239.695 42.88 235.588 42.88C230.095 42.88 225.961 42.92 223.188 43V42.2C224.095 42.1467 224.748 42.04 225.148 41.88C225.548 41.72 225.815 41.4133 225.948 40.96C226.108 40.5067 226.188 39.7733 226.188 38.76V22.92C226.188 21.9067 226.108 21.1733 225.948 20.72C225.815 20.2667 225.535 19.96 225.108 19.8C224.708 19.64 224.068 19.5333 223.188 19.48V18.68C225.961 18.76 230.095 18.8 235.588 18.8C239.321 18.8 241.975 18.76 243.548 18.68C243.361 20.4667 243.268 22.0667 243.268 23.48C243.268 24.52 243.308 25.3467 243.388 25.96H242.468C242.068 23.6667 241.375 22.04 240.388 21.08C239.401 20.0933 238.041 19.6 236.308 19.6H234.828C234.135 19.6 233.615 19.6667 233.268 19.8C232.921 19.9067 232.668 20.1467 232.508 20.52C232.375 20.8667 232.308 21.4267 232.308 22.2V30.36H234.188C235.415 30.36 236.335 29.9333 236.948 29.08C237.588 28.2 238.015 27.1867 238.228 26.04H239.148C239.068 26.9467 239.028 27.9867 239.028 29.16V30.76C239.028 31.96 239.108 33.5333 239.268 35.48H238.348C238.161 34.2267 237.735 33.2 237.068 32.4C236.428 31.5733 235.468 31.16 234.188 31.16H232.308V39.48C232.308 40.2533 232.375 40.8267 232.508 41.2C232.668 41.5467 232.921 41.7867 233.268 41.92C233.615 42.0267 234.135 42.08 234.828 42.08H236.548C238.441 42.08 239.921 41.5333 240.988 40.44C242.081 39.3467 242.841 37.5067 243.268 34.92H244.188C244.108 35.6667 244.068 36.6267 244.068 37.8ZM259.683 18.68C264.35 18.68 267.843 19.6933 270.163 21.72C272.483 23.72 273.643 26.6533 273.643 30.52C273.643 33.0267 273.083 35.2267 271.963 37.12C270.843 38.9867 269.203 40.44 267.043 41.48C264.883 42.4933 262.31 43 259.323 43L256.763 42.96C255.056 42.9067 253.803 42.88 253.003 42.88C250.63 42.88 248.816 42.92 247.563 43V42.2C248.47 42.1467 249.123 42.04 249.523 41.88C249.923 41.72 250.19 41.4133 250.323 40.96C250.483 40.5067 250.563 39.7733 250.563 38.76V22.92C250.563 21.9067 250.483 21.1733 250.323 20.72C250.19 20.2667 249.923 19.96 249.523 19.8C249.123 19.64 248.47 19.5333 247.563 19.48V18.68C248.576 18.76 250.003 18.8 251.843 18.8L255.683 18.76C257.656 18.7067 258.99 18.68 259.683 18.68ZM259.163 19.4C258.47 19.4 257.95 19.4933 257.603 19.68C257.256 19.8667 257.016 20.2 256.883 20.68C256.75 21.16 256.683 21.88 256.683 22.84V38.84C256.683 39.8 256.75 40.52 256.883 41C257.016 41.48 257.256 41.8133 257.603 42C257.95 42.1867 258.483 42.28 259.203 42.28C261.256 42.28 262.87 41.8533 264.043 41C265.216 40.12 266.043 38.84 266.523 37.16C267.003 35.48 267.243 33.32 267.243 30.68C267.243 26.7867 266.63 23.9333 265.403 22.12C264.176 20.3067 262.096 19.4 259.163 19.4ZM20.1419 68.32C20.3152 68.76 20.5152 69.08 20.7419 69.28C20.9685 69.48 21.1885 69.5867 21.4019 69.6V70C20.6019 69.96 19.5885 69.94 18.3619 69.94C17.0019 69.94 15.9885 69.96 15.3219 70V69.6C15.8285 69.5733 16.1885 69.5133 16.4019 69.42C16.6152 69.3133 16.7219 69.1333 16.7219 68.88C16.7219 68.64 16.6419 68.32 16.4819 67.92L15.2819 64.64H10.9219L10.4019 66.02C10.0285 66.98 9.84188 67.72 9.84188 68.24C9.84188 68.7333 9.98854 69.08 10.2819 69.28C10.5885 69.4667 11.0352 69.5733 11.6219 69.6V70C10.7152 69.96 9.88854 69.94 9.14188 69.94C8.52854 69.94 8.02188 69.96 7.62187 70V69.6C8.27521 69.48 8.84854 68.78 9.34188 67.5L13.9019 55.8C14.0485 55.8133 14.2819 55.82 14.6019 55.82C14.9219 55.82 15.1485 55.8133 15.2819 55.8L20.1419 68.32ZM15.1419 64.24L13.1619 58.84L11.0819 64.24H15.1419ZM34.8817 69.16C34.5617 69.5333 34.2017 69.8133 33.8017 70C33.4017 70.1867 32.9017 70.28 32.3017 70.28C31.5417 70.28 30.9551 70.1333 30.5417 69.84C30.1284 69.5467 29.8617 69.1533 29.7417 68.66L29.1617 66.3C29.0151 65.5533 28.7884 65.06 28.4817 64.82C28.1884 64.5667 27.7484 64.44 27.1617 64.44H26.5017V67.88C26.5017 68.3867 26.5351 68.7533 26.6017 68.98C26.6817 69.2067 26.8217 69.36 27.0217 69.44C27.2351 69.52 27.5617 69.5733 28.0017 69.6V70C27.2417 69.96 26.1551 69.94 24.7417 69.94C23.5017 69.94 22.5684 69.96 21.9417 70V69.6C22.3951 69.5733 22.7217 69.52 22.9217 69.44C23.1217 69.36 23.2551 69.2067 23.3217 68.98C23.4017 68.7533 23.4417 68.3867 23.4417 67.88V59.96C23.4417 59.4533 23.4017 59.0867 23.3217 58.86C23.2551 58.6333 23.1217 58.48 22.9217 58.4C22.7217 58.32 22.3951 58.2667 21.9417 58.24V57.84C22.5684 57.88 23.4617 57.9 24.6217 57.9L26.9017 57.88C27.1684 57.8667 27.4684 57.86 27.8017 57.86C29.5884 57.86 30.9217 58.1333 31.8017 58.68C32.6951 59.2133 33.1417 59.96 33.1417 60.92C33.1417 61.7467 32.7884 62.4733 32.0817 63.1C31.3751 63.7267 30.1951 64.1267 28.5417 64.3C28.7284 64.3 28.9217 64.32 29.1217 64.36C30.0817 64.4667 30.8351 64.68 31.3817 65C31.9417 65.32 32.3084 65.8267 32.4817 66.52L32.9017 68.3C32.9951 68.6733 33.1084 68.94 33.2417 69.1C33.3751 69.26 33.5417 69.34 33.7417 69.34C34.0217 69.34 34.3084 69.1933 34.6017 68.9L34.8817 69.16ZM27.5417 58.24C27.2484 58.24 27.0284 58.2867 26.8817 58.38C26.7351 58.4733 26.6351 58.64 26.5817 58.88C26.5284 59.12 26.5017 59.48 26.5017 59.96V64.04H27.3617C28.3484 64.04 29.0217 63.7867 29.3817 63.28C29.7551 62.7733 29.9417 62.06 29.9417 61.14C29.9417 60.1667 29.7551 59.44 29.3817 58.96C29.0217 58.48 28.4084 58.24 27.5417 58.24ZM41.7639 57.56C42.5372 57.56 43.1639 57.6733 43.6439 57.9C44.1239 58.1133 44.6172 58.4333 45.1239 58.86C45.2706 58.98 45.3972 59.04 45.5039 59.04C45.7706 59.04 45.9439 58.64 46.0239 57.84H46.4839C46.4306 58.64 46.4039 60.04 46.4039 62.04H45.9439C45.8106 61.32 45.6772 60.8 45.5439 60.48C45.4106 60.1467 45.2106 59.8133 44.9439 59.48C44.5706 59.04 44.1439 58.7 43.6639 58.46C43.1972 58.2067 42.7106 58.08 42.2039 58.08C41.4706 58.08 40.8306 58.32 40.2839 58.8C39.7372 59.2667 39.3106 59.94 39.0039 60.82C38.7106 61.7 38.5639 62.7467 38.5639 63.96C38.5639 65.1867 38.7239 66.24 39.0439 67.12C39.3772 67.9867 39.8306 68.6467 40.4039 69.1C40.9772 69.54 41.6239 69.76 42.3439 69.76C42.8639 69.76 43.3706 69.64 43.8639 69.4C44.3706 69.1467 44.8039 68.8 45.1639 68.36C45.4306 68.0267 45.6239 67.6667 45.7439 67.28C45.8639 66.8933 45.9772 66.3333 46.0839 65.6H46.5439C46.5439 67.6933 46.5706 69.16 46.6239 70H46.1639C46.1239 69.5867 46.0639 69.2867 45.9839 69.1C45.9039 68.9 45.7972 68.8 45.6639 68.8C45.5572 68.8 45.4239 68.86 45.2639 68.98C44.7706 69.3933 44.2572 69.7133 43.7239 69.94C43.1906 70.1667 42.5506 70.28 41.8039 70.28C40.5372 70.28 39.4172 70.0333 38.4439 69.54C37.4706 69.0467 36.7106 68.3333 36.1639 67.4C35.6306 66.4667 35.3639 65.3467 35.3639 64.04C35.3639 62.7733 35.6439 61.6467 36.2039 60.66C36.7639 59.6733 37.5239 58.9133 38.4839 58.38C39.4572 57.8333 40.5506 57.56 41.7639 57.56ZM62.5884 58.24C62.1351 58.2667 61.8084 58.32 61.6084 58.4C61.4084 58.48 61.2684 58.6333 61.1884 58.86C61.1218 59.0867 61.0884 59.4533 61.0884 59.96V67.88C61.0884 68.3867 61.1218 68.7533 61.1884 68.98C61.2684 69.2067 61.4084 69.36 61.6084 69.44C61.8218 69.52 62.1484 69.5733 62.5884 69.6V70C61.9751 69.96 61.0018 69.94 59.6684 69.94C58.3218 69.94 57.2751 69.96 56.5284 70V69.6C56.9818 69.5733 57.3084 69.52 57.5084 69.44C57.7084 69.36 57.8418 69.2067 57.9084 68.98C57.9884 68.7533 58.0284 68.3867 58.0284 67.88V64H52.8884V67.88C52.8884 68.3867 52.9218 68.7533 52.9884 68.98C53.0684 69.2067 53.2084 69.36 53.4084 69.44C53.6218 69.52 53.9484 69.5733 54.3884 69.6V70C53.6551 69.96 52.6084 69.94 51.2484 69.94C49.9418 69.94 48.9684 69.96 48.3284 70V69.6C48.7818 69.5733 49.1084 69.52 49.3084 69.44C49.5084 69.36 49.6418 69.2067 49.7084 68.98C49.7884 68.7533 49.8284 68.3867 49.8284 67.88V59.96C49.8284 59.4533 49.7884 59.0867 49.7084 58.86C49.6418 58.6333 49.5018 58.48 49.2884 58.4C49.0884 58.32 48.7684 58.2667 48.3284 58.24V57.84C48.9684 57.88 49.9418 57.9 51.2484 57.9C52.6084 57.9 53.6551 57.88 54.3884 57.84V58.24C53.9351 58.2667 53.6084 58.32 53.4084 58.4C53.2084 58.48 53.0684 58.6333 52.9884 58.86C52.9218 59.0867 52.8884 59.4533 52.8884 59.96V63.6H58.0284V59.96C58.0284 59.4533 57.9884 59.0867 57.9084 58.86C57.8418 58.6333 57.7018 58.48 57.4884 58.4C57.2884 58.32 56.9684 58.2667 56.5284 58.24V57.84C57.2751 57.88 58.3218 57.9 59.6684 57.9C61.0018 57.9 61.9751 57.88 62.5884 57.84V58.24ZM70.0134 58.24C69.5601 58.2667 69.2334 58.32 69.0334 58.4C68.8334 58.48 68.6934 58.6333 68.6134 58.86C68.5468 59.0867 68.5134 59.4533 68.5134 59.96V67.88C68.5134 68.3867 68.5468 68.7533 68.6134 68.98C68.6934 69.2067 68.8334 69.36 69.0334 69.44C69.2334 69.52 69.5601 69.5733 70.0134 69.6V70C69.3334 69.96 68.3468 69.94 67.0534 69.94C65.6534 69.94 64.6201 69.96 63.9534 70V69.6C64.4068 69.5733 64.7334 69.52 64.9334 69.44C65.1334 69.36 65.2668 69.2067 65.3334 68.98C65.4134 68.7533 65.4534 68.3867 65.4534 67.88V59.96C65.4534 59.4533 65.4134 59.0867 65.3334 58.86C65.2668 58.6333 65.1268 58.48 64.9134 58.4C64.7134 58.32 64.3934 58.2667 63.9534 58.24V57.84C64.6068 57.88 65.6401 57.9 67.0534 57.9C68.3468 57.9 69.3334 57.88 70.0134 57.84V58.24ZM83.1153 57.84C83.022 58.8533 82.9753 59.76 82.9753 60.56C82.9753 61.3067 82.9953 61.8933 83.0353 62.32H82.5753C82.3886 61.3067 82.162 60.5133 81.8953 59.94C81.642 59.3667 81.3086 58.9533 80.8953 58.7C80.4953 58.4333 79.9753 58.3 79.3353 58.3H78.7153V67.68C78.7153 68.24 78.7686 68.6467 78.8753 68.9C78.982 69.1533 79.1686 69.3267 79.4353 69.42C79.702 69.5133 80.1353 69.5733 80.7353 69.6V70C80.0153 69.96 78.8153 69.94 77.1353 69.94C75.442 69.94 74.2753 69.96 73.6353 70V69.6C74.2353 69.5733 74.6686 69.5133 74.9353 69.42C75.202 69.3267 75.3886 69.1533 75.4953 68.9C75.602 68.6467 75.6553 68.24 75.6553 67.68V58.3H75.0353C74.3953 58.3 73.8686 58.4333 73.4553 58.7C73.0553 58.9533 72.722 59.3667 72.4553 59.94C72.202 60.5133 71.982 61.3067 71.7953 62.32H71.3353C71.3753 61.8933 71.3953 61.3067 71.3953 60.56C71.3953 59.76 71.3486 58.8533 71.2553 57.84C72.4153 57.88 74.3753 57.9 77.1353 57.9C79.9486 57.9 81.942 57.88 83.1153 57.84ZM94.8036 67.4C94.8036 68.16 94.8503 69.0267 94.9436 70C94.0769 69.96 92.6169 69.94 90.5636 69.94C87.8169 69.94 85.7503 69.96 84.3636 70V69.6C84.8169 69.5733 85.1436 69.52 85.3436 69.44C85.5436 69.36 85.6769 69.2067 85.7436 68.98C85.8236 68.7533 85.8636 68.3867 85.8636 67.88V59.96C85.8636 59.4533 85.8236 59.0867 85.7436 58.86C85.6769 58.6333 85.5369 58.48 85.3236 58.4C85.1236 58.32 84.8036 58.2667 84.3636 58.24V57.84C85.7503 57.88 87.8169 57.9 90.5636 57.9C92.4303 57.9 93.7569 57.88 94.5436 57.84C94.4503 58.7333 94.4036 59.5333 94.4036 60.24C94.4036 60.76 94.4236 61.1733 94.4636 61.48H94.0036C93.8036 60.3333 93.4569 59.52 92.9636 59.04C92.4703 58.5467 91.7903 58.3 90.9236 58.3H90.1836C89.8369 58.3 89.5769 58.3333 89.4036 58.4C89.2303 58.4533 89.1036 58.5733 89.0236 58.76C88.9569 58.9333 88.9236 59.2133 88.9236 59.6V63.68H89.8636C90.4769 63.68 90.9369 63.4667 91.2436 63.04C91.5636 62.6 91.7769 62.0933 91.8836 61.52H92.3436C92.3036 61.9733 92.2836 62.4933 92.2836 63.08V63.88C92.2836 64.48 92.3236 65.2667 92.4036 66.24H91.9436C91.8503 65.6133 91.6369 65.1 91.3036 64.7C90.9836 64.2867 90.5036 64.08 89.8636 64.08H88.9236V68.24C88.9236 68.6267 88.9569 68.9133 89.0236 69.1C89.1036 69.2733 89.2303 69.3933 89.4036 69.46C89.5769 69.5133 89.8369 69.54 90.1836 69.54H91.0436C91.9903 69.54 92.7303 69.2667 93.2636 68.72C93.8103 68.1733 94.1903 67.2533 94.4036 65.96H94.8636C94.8236 66.3333 94.8036 66.8133 94.8036 67.4ZM103.131 57.56C103.904 57.56 104.531 57.6733 105.011 57.9C105.491 58.1133 105.984 58.4333 106.491 58.86C106.638 58.98 106.764 59.04 106.871 59.04C107.138 59.04 107.311 58.64 107.391 57.84H107.851C107.798 58.64 107.771 60.04 107.771 62.04H107.311C107.178 61.32 107.044 60.8 106.911 60.48C106.778 60.1467 106.578 59.8133 106.311 59.48C105.938 59.04 105.511 58.7 105.031 58.46C104.564 58.2067 104.078 58.08 103.571 58.08C102.838 58.08 102.198 58.32 101.651 58.8C101.104 59.2667 100.678 59.94 100.371 60.82C100.078 61.7 99.9311 62.7467 99.9311 63.96C99.9311 65.1867 100.091 66.24 100.411 67.12C100.744 67.9867 101.198 68.6467 101.771 69.1C102.344 69.54 102.991 69.76 103.711 69.76C104.231 69.76 104.738 69.64 105.231 69.4C105.738 69.1467 106.171 68.8 106.531 68.36C106.798 68.0267 106.991 67.6667 107.111 67.28C107.231 66.8933 107.344 66.3333 107.451 65.6H107.911C107.911 67.6933 107.938 69.16 107.991 70H107.531C107.491 69.5867 107.431 69.2867 107.351 69.1C107.271 68.9 107.164 68.8 107.031 68.8C106.924 68.8 106.791 68.86 106.631 68.98C106.138 69.3933 105.624 69.7133 105.091 69.94C104.558 70.1667 103.918 70.28 103.171 70.28C101.904 70.28 100.784 70.0333 99.8111 69.54C98.8378 69.0467 98.0778 68.3333 97.5311 67.4C96.9978 66.4667 96.7311 65.3467 96.7311 64.04C96.7311 62.7733 97.0111 61.6467 97.5711 60.66C98.1311 59.6733 98.8911 58.9133 99.8511 58.38C100.824 57.8333 101.918 57.56 103.131 57.56ZM121.436 57.84C121.342 58.8533 121.296 59.76 121.296 60.56C121.296 61.3067 121.316 61.8933 121.356 62.32H120.896C120.709 61.3067 120.482 60.5133 120.216 59.94C119.962 59.3667 119.629 58.9533 119.216 58.7C118.816 58.4333 118.296 58.3 117.656 58.3H117.036V67.68C117.036 68.24 117.089 68.6467 117.196 68.9C117.302 69.1533 117.489 69.3267 117.756 69.42C118.022 69.5133 118.456 69.5733 119.056 69.6V70C118.336 69.96 117.136 69.94 115.456 69.94C113.762 69.94 112.596 69.96 111.956 70V69.6C112.556 69.5733 112.989 69.5133 113.256 69.42C113.522 69.3267 113.709 69.1533 113.816 68.9C113.922 68.6467 113.976 68.24 113.976 67.68V58.3H113.356C112.716 58.3 112.189 58.4333 111.776 58.7C111.376 58.9533 111.042 59.3667 110.776 59.94C110.522 60.5133 110.302 61.3067 110.116 62.32H109.656C109.696 61.8933 109.716 61.3067 109.716 60.56C109.716 59.76 109.669 58.8533 109.576 57.84C110.736 57.88 112.696 57.9 115.456 57.9C118.269 57.9 120.262 57.88 121.436 57.84ZM143.402 59.52C143.402 60.4667 143.116 61.1933 142.542 61.7C141.969 62.1933 141.236 62.5667 140.342 62.82L139.942 62.94C140.422 63.1667 140.782 63.5133 141.022 63.98C141.262 64.4333 141.382 64.9333 141.382 65.48C141.382 66.44 141.082 67.28 140.482 68C139.896 68.72 139.042 69.28 137.922 69.68C136.816 70.08 135.509 70.28 134.002 70.28C132.656 70.28 131.456 70.12 130.402 69.8C129.349 69.4667 128.522 69 127.922 68.4C127.336 67.7867 127.042 67.06 127.042 66.22C127.042 65.4067 127.276 64.7133 127.742 64.14C128.222 63.5667 128.769 63.1267 129.382 62.82C129.996 62.5133 130.556 62.3067 131.062 62.2C129.396 61.6667 128.562 60.8867 128.562 59.86C128.562 59.1267 128.956 58.56 129.742 58.16C130.542 57.76 131.496 57.56 132.602 57.56C133.322 57.56 133.962 57.6933 134.522 57.96C135.322 58.3867 135.722 58.9267 135.722 59.58C135.722 59.9933 135.569 60.32 135.262 60.56C134.969 60.8 134.602 60.92 134.162 60.92C133.749 60.92 133.402 60.8133 133.122 60.6C132.856 60.3867 132.722 60.0867 132.722 59.7C132.722 59.3533 132.836 59.0467 133.062 58.78C133.302 58.5 133.616 58.32 134.002 58.24C133.922 58.1467 133.782 58.0667 133.582 58C133.382 57.9333 133.162 57.9 132.922 57.9C132.309 57.9 131.776 58.1133 131.322 58.54C130.882 58.9667 130.662 59.54 130.662 60.26C130.662 60.62 130.709 60.9467 130.802 61.24C130.896 61.5333 131.069 61.8133 131.322 62.08C131.669 61.9733 132.042 61.92 132.442 61.92C132.682 61.92 132.862 61.9667 132.982 62.06C133.116 62.1533 133.182 62.28 133.182 62.44C133.182 62.72 132.996 62.86 132.622 62.86C132.422 62.86 132.216 62.8133 132.002 62.72C131.802 62.6267 131.582 62.5067 131.342 62.36C130.996 62.6267 130.722 62.9533 130.522 63.34C130.322 63.7133 130.222 64.1867 130.222 64.76C130.222 66.04 130.669 67 131.562 67.64C132.469 68.28 133.729 68.6 135.342 68.6C136.916 68.6 138.222 68.3133 139.262 67.74C140.316 67.1667 140.842 66.28 140.842 65.08C140.842 64.0933 140.429 63.4133 139.602 63.04L137.262 63.74C136.129 64.0067 135.289 64.28 134.742 64.56C134.196 64.84 133.922 65.22 133.922 65.7C133.922 66.14 134.122 66.5067 134.522 66.8C134.936 67.08 135.402 67.22 135.922 67.22C136.082 67.22 136.242 67.2 136.402 67.16C136.562 67.12 136.669 67.0733 136.722 67.02C136.402 66.9133 136.156 66.7467 135.982 66.52C135.809 66.2933 135.722 66.0267 135.722 65.72C135.722 65.3067 135.869 64.98 136.162 64.74C136.469 64.5 136.856 64.38 137.322 64.38C137.802 64.38 138.176 64.5067 138.442 64.76C138.722 65 138.862 65.3267 138.862 65.74C138.862 66.3267 138.596 66.78 138.062 67.1C137.529 67.4067 136.882 67.56 136.122 67.56C135.229 67.56 134.529 67.36 134.022 66.96C133.529 66.5467 133.282 65.94 133.282 65.14C133.282 64.18 133.636 63.4333 134.342 62.9C135.049 62.3533 135.976 61.9267 137.122 61.62C138.256 61.3267 139.209 61.0333 139.982 60.74C140.662 60.5267 141.162 60.36 141.482 60.24C141.816 60.1067 142.109 59.92 142.362 59.68C142.629 59.44 142.762 59.1467 142.762 58.8C142.762 58.32 142.556 57.9333 142.142 57.64C141.729 57.3467 141.249 57.2 140.702 57.2C140.476 57.2 140.296 57.2333 140.162 57.3C140.456 57.42 140.689 57.6 140.862 57.84C141.049 58.0667 141.142 58.3133 141.142 58.58C141.142 58.9667 140.989 59.2733 140.682 59.5C140.389 59.7267 140.016 59.84 139.562 59.84C139.082 59.84 138.696 59.7267 138.402 59.5C138.122 59.26 137.982 58.9333 137.982 58.52C137.982 58 138.209 57.5933 138.662 57.3C139.116 56.9933 139.722 56.84 140.482 56.84C141.376 56.84 142.082 57.0733 142.602 57.54C143.136 57.9933 143.402 58.6533 143.402 59.52ZM159.908 68.32C160.081 68.76 160.281 69.08 160.508 69.28C160.734 69.48 160.954 69.5867 161.168 69.6V70C160.368 69.96 159.354 69.94 158.128 69.94C156.768 69.94 155.754 69.96 155.088 70V69.6C155.594 69.5733 155.954 69.5133 156.168 69.42C156.381 69.3133 156.488 69.1333 156.488 68.88C156.488 68.64 156.408 68.32 156.248 67.92L155.048 64.64H150.688L150.168 66.02C149.794 66.98 149.608 67.72 149.608 68.24C149.608 68.7333 149.754 69.08 150.048 69.28C150.354 69.4667 150.801 69.5733 151.388 69.6V70C150.481 69.96 149.654 69.94 148.908 69.94C148.294 69.94 147.788 69.96 147.387 70V69.6C148.041 69.48 148.614 68.78 149.108 67.5L153.668 55.8C153.814 55.8133 154.048 55.82 154.368 55.82C154.688 55.82 154.914 55.8133 155.048 55.8L159.908 68.32ZM154.908 64.24L152.928 58.84L150.848 64.24H154.908ZM166.807 57.56C167.421 57.56 167.941 57.6267 168.367 57.76C168.807 57.8933 169.221 58.0733 169.607 58.3C169.754 58.38 169.881 58.4467 169.987 58.5C170.107 58.5533 170.207 58.58 170.287 58.58C170.407 58.58 170.501 58.5133 170.567 58.38C170.634 58.2333 170.687 58.0067 170.727 57.7H171.187C171.121 58.5 171.087 59.8867 171.087 61.86H170.627C170.481 60.66 170.094 59.72 169.467 59.04C168.841 58.3467 168.021 58 167.007 58C166.341 58 165.801 58.1467 165.387 58.44C164.987 58.7333 164.787 59.1133 164.787 59.58C164.787 59.94 164.894 60.2733 165.107 60.58C165.334 60.8733 165.627 61.1467 165.987 61.4C166.347 61.6533 166.874 61.9867 167.567 62.4L168.007 62.66C168.807 63.1133 169.461 63.5267 169.967 63.9C170.474 64.26 170.894 64.6933 171.227 65.2C171.561 65.6933 171.727 66.2533 171.727 66.88C171.727 67.9733 171.274 68.8133 170.367 69.4C169.461 69.9867 168.267 70.28 166.787 70.28C166.147 70.28 165.594 70.2067 165.127 70.06C164.661 69.9267 164.187 69.74 163.707 69.5C163.374 69.34 163.141 69.26 163.007 69.26C162.887 69.26 162.794 69.3333 162.727 69.48C162.661 69.6133 162.607 69.8333 162.567 70.14H162.107C162.161 69.3933 162.187 67.7667 162.187 65.26H162.647C162.741 66.6733 163.121 67.7867 163.787 68.6C164.467 69.4133 165.421 69.82 166.647 69.82C167.247 69.82 167.767 69.6667 168.207 69.36C168.647 69.0533 168.867 68.6 168.867 68C168.867 67.4667 168.661 67.0067 168.247 66.62C167.834 66.2333 167.127 65.7467 166.127 65.16C164.861 64.44 163.887 63.7533 163.207 63.1C162.541 62.4467 162.207 61.68 162.207 60.8C162.207 59.76 162.634 58.96 163.487 58.4C164.354 57.84 165.461 57.56 166.807 57.56ZM178.37 57.56C178.983 57.56 179.503 57.6267 179.93 57.76C180.37 57.8933 180.783 58.0733 181.17 58.3C181.317 58.38 181.443 58.4467 181.55 58.5C181.67 58.5533 181.77 58.58 181.85 58.58C181.97 58.58 182.063 58.5133 182.13 58.38C182.197 58.2333 182.25 58.0067 182.29 57.7H182.75C182.683 58.5 182.65 59.8867 182.65 61.86H182.19C182.043 60.66 181.657 59.72 181.03 59.04C180.403 58.3467 179.583 58 178.57 58C177.903 58 177.363 58.1467 176.95 58.44C176.55 58.7333 176.35 59.1133 176.35 59.58C176.35 59.94 176.457 60.2733 176.67 60.58C176.897 60.8733 177.19 61.1467 177.55 61.4C177.91 61.6533 178.437 61.9867 179.13 62.4L179.57 62.66C180.37 63.1133 181.023 63.5267 181.53 63.9C182.037 64.26 182.457 64.6933 182.79 65.2C183.123 65.6933 183.29 66.2533 183.29 66.88C183.29 67.9733 182.837 68.8133 181.93 69.4C181.023 69.9867 179.83 70.28 178.35 70.28C177.71 70.28 177.157 70.2067 176.69 70.06C176.223 69.9267 175.75 69.74 175.27 69.5C174.937 69.34 174.703 69.26 174.57 69.26C174.45 69.26 174.357 69.3333 174.29 69.48C174.223 69.6133 174.17 69.8333 174.13 70.14H173.67C173.723 69.3933 173.75 67.7667 173.75 65.26H174.21C174.303 66.6733 174.683 67.7867 175.35 68.6C176.03 69.4133 176.983 69.82 178.21 69.82C178.81 69.82 179.33 69.6667 179.77 69.36C180.21 69.0533 180.43 68.6 180.43 68C180.43 67.4667 180.223 67.0067 179.81 66.62C179.397 66.2333 178.69 65.7467 177.69 65.16C176.423 64.44 175.45 63.7533 174.77 63.1C174.103 62.4467 173.77 61.68 173.77 60.8C173.77 59.76 174.197 58.96 175.05 58.4C175.917 57.84 177.023 57.56 178.37 57.56ZM191.752 57.56C193.099 57.56 194.279 57.8067 195.292 58.3C196.306 58.78 197.092 59.4933 197.652 60.44C198.212 61.3733 198.492 62.4933 198.492 63.8C198.492 65.08 198.206 66.2133 197.632 67.2C197.059 68.1733 196.259 68.9333 195.232 69.48C194.206 70.0133 193.039 70.28 191.732 70.28C190.386 70.28 189.206 70.04 188.192 69.56C187.179 69.0667 186.392 68.3533 185.832 67.42C185.272 66.4733 184.992 65.3467 184.992 64.04C184.992 62.76 185.279 61.6333 185.852 60.66C186.426 59.6733 187.226 58.9133 188.252 58.38C189.279 57.8333 190.446 57.56 191.752 57.56ZM191.672 57.92C190.979 57.92 190.366 58.18 189.832 58.7C189.312 59.2067 188.906 59.92 188.612 60.84C188.332 61.7467 188.192 62.7867 188.192 63.96C188.192 65.1467 188.352 66.1933 188.672 67.1C188.992 68.0067 189.426 68.7067 189.972 69.2C190.532 69.68 191.146 69.92 191.812 69.92C192.506 69.92 193.112 69.6667 193.632 69.16C194.166 68.64 194.572 67.9267 194.852 67.02C195.146 66.1 195.292 65.0533 195.292 63.88C195.292 62.6933 195.132 61.6467 194.812 60.74C194.492 59.8333 194.052 59.14 193.492 58.66C192.946 58.1667 192.339 57.92 191.672 57.92ZM206.588 57.56C207.361 57.56 207.988 57.6733 208.468 57.9C208.948 58.1133 209.441 58.4333 209.948 58.86C210.095 58.98 210.221 59.04 210.328 59.04C210.595 59.04 210.768 58.64 210.848 57.84H211.308C211.255 58.64 211.228 60.04 211.228 62.04H210.768C210.635 61.32 210.501 60.8 210.368 60.48C210.235 60.1467 210.035 59.8133 209.768 59.48C209.395 59.04 208.968 58.7 208.488 58.46C208.021 58.2067 207.535 58.08 207.028 58.08C206.295 58.08 205.655 58.32 205.108 58.8C204.561 59.2667 204.135 59.94 203.828 60.82C203.535 61.7 203.388 62.7467 203.388 63.96C203.388 65.1867 203.548 66.24 203.868 67.12C204.201 67.9867 204.655 68.6467 205.228 69.1C205.801 69.54 206.448 69.76 207.168 69.76C207.688 69.76 208.195 69.64 208.688 69.4C209.195 69.1467 209.628 68.8 209.988 68.36C210.255 68.0267 210.448 67.6667 210.568 67.28C210.688 66.8933 210.801 66.3333 210.908 65.6H211.368C211.368 67.6933 211.395 69.16 211.448 70H210.988C210.948 69.5867 210.888 69.2867 210.808 69.1C210.728 68.9 210.621 68.8 210.488 68.8C210.381 68.8 210.248 68.86 210.088 68.98C209.595 69.3933 209.081 69.7133 208.548 69.94C208.015 70.1667 207.375 70.28 206.628 70.28C205.361 70.28 204.241 70.0333 203.268 69.54C202.295 69.0467 201.535 68.3333 200.988 67.4C200.455 66.4667 200.188 65.3467 200.188 64.04C200.188 62.7733 200.468 61.6467 201.028 60.66C201.588 59.6733 202.348 58.9133 203.308 58.38C204.281 57.8333 205.375 57.56 206.588 57.56ZM219.213 58.24C218.759 58.2667 218.433 58.32 218.233 58.4C218.033 58.48 217.893 58.6333 217.813 58.86C217.746 59.0867 217.713 59.4533 217.713 59.96V67.88C217.713 68.3867 217.746 68.7533 217.813 68.98C217.893 69.2067 218.033 69.36 218.233 69.44C218.433 69.52 218.759 69.5733 219.213 69.6V70C218.533 69.96 217.546 69.94 216.253 69.94C214.853 69.94 213.819 69.96 213.153 70V69.6C213.606 69.5733 213.933 69.52 214.133 69.44C214.333 69.36 214.466 69.2067 214.533 68.98C214.613 68.7533 214.653 68.3867 214.653 67.88V59.96C214.653 59.4533 214.613 59.0867 214.533 58.86C214.466 58.6333 214.326 58.48 214.113 58.4C213.913 58.32 213.593 58.2667 213.153 58.24V57.84C213.806 57.88 214.839 57.9 216.253 57.9C217.546 57.9 218.533 57.88 219.213 57.84V58.24ZM231.335 68.32C231.721 69.1467 232.141 69.5733 232.595 69.6V70C231.955 69.96 231.081 69.94 229.975 69.94C228.548 69.94 227.495 69.96 226.815 70V69.6C227.255 69.5733 227.581 69.5067 227.795 69.4C228.008 69.28 228.115 69.0867 228.115 68.82C228.115 68.58 228.028 68.28 227.855 67.92L226.855 65.64H222.655L222.415 66.18C222.041 67.06 221.855 67.7467 221.855 68.24C221.855 68.6933 222.001 69.0267 222.295 69.24C222.588 69.4533 223.021 69.5733 223.595 69.6V70C222.835 69.96 222.068 69.94 221.295 69.94C220.575 69.94 220.035 69.96 219.675 70V69.6C219.995 69.5333 220.288 69.3333 220.555 69C220.835 68.6533 221.128 68.14 221.435 67.46L225.655 57.8C225.761 57.8133 225.915 57.82 226.115 57.82C226.328 57.82 226.481 57.8133 226.575 57.8L231.335 68.32ZM226.675 65.24L224.755 60.86L222.835 65.24H226.675ZM243.76 57.84C243.667 58.8533 243.62 59.76 243.62 60.56C243.62 61.3067 243.64 61.8933 243.68 62.32H243.22C243.033 61.3067 242.807 60.5133 242.54 59.94C242.287 59.3667 241.953 58.9533 241.54 58.7C241.14 58.4333 240.62 58.3 239.98 58.3H239.36V67.68C239.36 68.24 239.413 68.6467 239.52 68.9C239.627 69.1533 239.813 69.3267 240.08 69.42C240.347 69.5133 240.78 69.5733 241.38 69.6V70C240.66 69.96 239.46 69.94 237.78 69.94C236.087 69.94 234.92 69.96 234.28 70V69.6C234.88 69.5733 235.313 69.5133 235.58 69.42C235.847 69.3267 236.033 69.1533 236.14 68.9C236.247 68.6467 236.3 68.24 236.3 67.68V58.3H235.68C235.04 58.3 234.513 58.4333 234.1 58.7C233.7 58.9533 233.367 59.3667 233.1 59.94C232.847 60.5133 232.627 61.3067 232.44 62.32H231.98C232.02 61.8933 232.04 61.3067 232.04 60.56C232.04 59.76 231.993 58.8533 231.9 57.84C233.06 57.88 235.02 57.9 237.78 57.9C240.593 57.9 242.587 57.88 243.76 57.84ZM255.448 67.4C255.448 68.16 255.495 69.0267 255.588 70C254.721 69.96 253.261 69.94 251.208 69.94C248.461 69.94 246.395 69.96 245.008 70V69.6C245.461 69.5733 245.788 69.52 245.988 69.44C246.188 69.36 246.321 69.2067 246.388 68.98C246.468 68.7533 246.508 68.3867 246.508 67.88V59.96C246.508 59.4533 246.468 59.0867 246.388 58.86C246.321 58.6333 246.181 58.48 245.968 58.4C245.768 58.32 245.448 58.2667 245.008 58.24V57.84C246.395 57.88 248.461 57.9 251.208 57.9C253.075 57.9 254.401 57.88 255.188 57.84C255.095 58.7333 255.048 59.5333 255.048 60.24C255.048 60.76 255.068 61.1733 255.108 61.48H254.648C254.448 60.3333 254.101 59.52 253.608 59.04C253.115 58.5467 252.435 58.3 251.568 58.3H250.828C250.481 58.3 250.221 58.3333 250.048 58.4C249.875 58.4533 249.748 58.5733 249.668 58.76C249.601 58.9333 249.568 59.2133 249.568 59.6V63.68H250.508C251.121 63.68 251.581 63.4667 251.888 63.04C252.208 62.6 252.421 62.0933 252.528 61.52H252.988C252.948 61.9733 252.928 62.4933 252.928 63.08V63.88C252.928 64.48 252.968 65.2667 253.048 66.24H252.588C252.495 65.6133 252.281 65.1 251.948 64.7C251.628 64.2867 251.148 64.08 250.508 64.08H249.568V68.24C249.568 68.6267 249.601 68.9133 249.668 69.1C249.748 69.2733 249.875 69.3933 250.048 69.46C250.221 69.5133 250.481 69.54 250.828 69.54H251.688C252.635 69.54 253.375 69.2667 253.908 68.72C254.455 68.1733 254.835 67.2533 255.048 65.96H255.508C255.468 66.3333 255.448 66.8133 255.448 67.4ZM262.296 57.56C262.909 57.56 263.429 57.6267 263.856 57.76C264.296 57.8933 264.709 58.0733 265.096 58.3C265.242 58.38 265.369 58.4467 265.476 58.5C265.596 58.5533 265.696 58.58 265.776 58.58C265.896 58.58 265.989 58.5133 266.056 58.38C266.122 58.2333 266.176 58.0067 266.216 57.7H266.676C266.609 58.5 266.576 59.8867 266.576 61.86H266.116C265.969 60.66 265.582 59.72 264.956 59.04C264.329 58.3467 263.509 58 262.496 58C261.829 58 261.289 58.1467 260.876 58.44C260.476 58.7333 260.276 59.1133 260.276 59.58C260.276 59.94 260.382 60.2733 260.596 60.58C260.822 60.8733 261.116 61.1467 261.476 61.4C261.836 61.6533 262.362 61.9867 263.056 62.4L263.496 62.66C264.296 63.1133 264.949 63.5267 265.456 63.9C265.962 64.26 266.382 64.6933 266.716 65.2C267.049 65.6933 267.216 66.2533 267.216 66.88C267.216 67.9733 266.762 68.8133 265.856 69.4C264.949 69.9867 263.756 70.28 262.276 70.28C261.636 70.28 261.082 70.2067 260.616 70.06C260.149 69.9267 259.676 69.74 259.196 69.5C258.862 69.34 258.629 69.26 258.496 69.26C258.376 69.26 258.282 69.3333 258.216 69.48C258.149 69.6133 258.096 69.8333 258.056 70.14H257.596C257.649 69.3933 257.676 67.7667 257.676 65.26H258.136C258.229 66.6733 258.609 67.7867 259.276 68.6C259.956 69.4133 260.909 69.82 262.136 69.82C262.736 69.82 263.256 69.6667 263.696 69.36C264.136 69.0533 264.356 68.6 264.356 68C264.356 67.4667 264.149 67.0067 263.736 66.62C263.322 66.2333 262.616 65.7467 261.616 65.16C260.349 64.44 259.376 63.7533 258.696 63.1C258.029 62.4467 257.696 61.68 257.696 60.8C257.696 59.76 258.122 58.96 258.976 58.4C259.842 57.84 260.949 57.56 262.296 57.56Z" fill="white"/>
</svg>
